<?xml version="1.0" encoding="UTF-8"?>
<svg id="uuid-97913339-a3a9-4d5f-a528-6b24ad1a0f8c" data-name="Layer 1" xmlns="http://www.w3.org/2000/svg" viewBox="0 0 2000 2000">
  <defs>
    <style>
      .uuid-0e20b54e-5f8e-40bd-9d41-239cc7c79189 {
        fill: #f15a29;
      }

      .uuid-0e20b54e-5f8e-40bd-9d41-239cc7c79189, .uuid-e42cecfc-5f1d-4514-8c64-01826fed76fb, .uuid-60db3cdf-d6ec-4080-b9d4-f84b6e1d6ae0, .uuid-76e4ca81-f290-46f9-9c76-0b31909c7dd1, .uuid-59499aa6-4a7f-44ab-8dc1-0ff3c69e60df, .uuid-be629f57-2e5f-4308-ac73-ec0ed19262b2, .uuid-ed88107c-ceff-45c6-ba2f-38663728fe8c, .uuid-cf303427-e72e-4139-8c01-1d0d9842a11e, .uuid-3267ca73-5fe7-492c-8c43-f9ad82f586cc, .uuid-9c5b3829-157b-4b3e-868a-b61fdf58b980, .uuid-51944ab9-9ae7-4294-a2a6-11481424e3e4, .uuid-2c0ea7b6-720f-4207-8994-491310072227 {
        stroke-width: 0px;
      }

      .uuid-e42cecfc-5f1d-4514-8c64-01826fed76fb {
        fill: #091d39;
      }

      .uuid-60db3cdf-d6ec-4080-b9d4-f84b6e1d6ae0 {
        fill: none;
      }

      .uuid-76e4ca81-f290-46f9-9c76-0b31909c7dd1 {
        fill: #52aacc;
      }

      .uuid-59499aa6-4a7f-44ab-8dc1-0ff3c69e60df {
        fill: #fff;
      }

      .uuid-be629f57-2e5f-4308-ac73-ec0ed19262b2 {
        fill: #369bba;
      }

      .uuid-ed88107c-ceff-45c6-ba2f-38663728fe8c {
        fill: #ada681;
      }

      .uuid-cf303427-e72e-4139-8c01-1d0d9842a11e {
        fill: #0a1c43;
      }

      .uuid-3267ca73-5fe7-492c-8c43-f9ad82f586cc {
        fill: #89c9e9;
      }

      .uuid-9c5b3829-157b-4b3e-868a-b61fdf58b980 {
        fill: #be1e2d;
      }

      .uuid-51944ab9-9ae7-4294-a2a6-11481424e3e4 {
        fill: #941b1e;
      }

      .uuid-2c0ea7b6-720f-4207-8994-491310072227 {
        fill: #f2f2f2;
      }
    </style>
  </defs>
  <rect class="uuid-59499aa6-4a7f-44ab-8dc1-0ff3c69e60df" width="2000" height="2000"/>
  <path class="uuid-cf303427-e72e-4139-8c01-1d0d9842a11e" d="m242.1,1545.12L962.39,297.54c18.19-31.5,63.65-31.5,81.84,0l720.29,1247.58c18.19,31.5-4.55,70.87-40.92,70.87H283.02c-36.37,0-59.1-39.37-40.92-70.87Z"/>
  <path class="uuid-9c5b3829-157b-4b3e-868a-b61fdf58b980" d="m838.19,883.59c-26.75,81.52-109.33,294.33-323.67,416.15-54.59,31.03-107.93,50.58-155.53,63.05-63.12,104.52-107.91,182.85-117.7,204.57-4.97,11.04-7.34,21.75-2.8,29.42,3.61,6.1,11.91,10.82,12.61,11.21,4.37,2.44,8.41,3.61,11.21,4.2,77.9,3.19,155.8,6.39,233.7,9.58,116.98-113.1,197.12-219.36,249.7-298.23,71.33-106.99,98.46-173.38,107.89-197.57,37.1-95.17,50.7-180.01,56.05-239.6-23.82-.93-47.64-1.87-71.46-2.8Z"/>
  <path class="uuid-0e20b54e-5f8e-40bd-9d41-239cc7c79189" d="m897.04,854.17c-9.24,81.83-37.32,225.65-135.91,369.91-180.14,263.59-460.06,330.2-529.64,344.69,4.2,11.21,8.41,22.42,12.61,33.63,119.42,6.46,238.85,12.93,358.27,19.39,63.48-53.84,163.79-152.96,239.71-306.19,88.08-177.78,99.7-340.35,99.73-427-14.92-11.47-29.84-22.95-44.76-34.42Z"/>
  <path class="uuid-9c5b3829-157b-4b3e-868a-b61fdf58b980" d="m1161.71,883.59c26.75,81.52,109.33,294.33,323.67,416.15,54.59,31.03,107.93,50.58,155.53,63.05,63.12,104.52,107.92,182.85,117.7,204.57,4.97,11.04,7.34,21.75,2.8,29.42-3.61,6.1-11.91,10.82-12.61,11.21-4.37,2.44-8.41,3.61-11.21,4.2-77.9,3.19-155.8,6.39-233.7,9.58-116.98-113.1-197.12-219.36-249.7-298.23-71.33-106.99-98.46-173.38-107.89-197.57-37.1-95.17-50.7-180.01-56.05-239.6,23.82-.93,47.64-1.87,71.46-2.8Z"/>
  <path class="uuid-0e20b54e-5f8e-40bd-9d41-239cc7c79189" d="m1102.87,854.17c9.24,81.83,37.32,225.65,135.91,369.91,180.14,263.59,460.06,330.2,529.64,344.69-4.2,11.21-8.41,22.42-12.61,33.63-119.42,6.46-238.85,12.93-358.27,19.39-63.48-53.84-163.79-152.96-239.71-306.19-88.08-177.78-99.7-340.35-99.73-427,14.92-11.47,29.84-22.95,44.76-34.42Z"/>
  <path class="uuid-59499aa6-4a7f-44ab-8dc1-0ff3c69e60df" d="m1133.69,1211.47c-78.32-167.82-75.85-322.33-69.17-399.28-21.52-18.31-43.04-36.62-64.57-54.92-21.52,18.31-43.04,36.62-64.57,54.92,6.68,76.95,9.15,231.46-69.17,399.28-123.47,264.58-358.38,370.78-420.35,396.53,184.7-3.01,369.39-6.03,554.09-9.04,184.7,3.01,369.39,6.03,554.09,9.04-61.98-25.76-296.88-131.96-420.35-396.53Z"/>
  <path class="uuid-cf303427-e72e-4139-8c01-1d0d9842a11e" d="m1113.05,1250.93c-66.23-151.12-64.15-290.25-58.5-359.55-18.2-16.49-36.4-32.97-54.6-49.46-18.2,16.49-36.4,32.97-54.6,49.46,5.65,69.29,7.73,208.43-58.5,359.55-104.42,238.25-303.08,333.88-355.49,357.07,156.2-2.71,312.39-5.43,468.59-8.14,156.2,2.71,312.39,5.43,468.59,8.14-52.41-23.19-251.07-118.82-355.49-357.07Z"/>
  <path class="uuid-e42cecfc-5f1d-4514-8c64-01826fed76fb" d="m927,967.39l-4.92-21.66c-12.04-.75-24.24-1.42-36.33-2.01-19.04-.93-37.13-1.62-51.67-2.17-10.44-.4-19.14-.73-25.23-1.03-10.34-.52-16.59-.84-16.48-8.31l.06-3.86,1.12-.75c1.16-6.63,2.71-28.06,3.6-46.28l.1-2.15,33.91-47.56-1.04,24.95,49.3-80.11,54.32-168.69c-.19,0-4.22,0-4.22,0l-2.51-3.06c-1.49-1.98-1.92-4.56-1.18-7.09.83-2.86,8.19-33.31,12.93-53.07l.53-2.23,19.06-17.03,29-102.09c1.41-5.22,5.98-9.14,11.36-9.66.41-.04.81-.06,1.22-.06,5.86,0,11.07,4.01,12.68,9.74l28.99,102.06,19.06,17.03.53,2.23c4.74,19.77,12.1,50.21,12.93,53.07.73,2.53.3,5.11-1.18,7.09l-2.2,2.93-3.98.13c-.18,0-.36,0-.55,0l54.32,168.69,49.29,80.11-1.04-24.95,33.91,47.56.11,2.15c.88,18.2,2.43,39.61,3.59,46.26l1.15.76.03,3.98c.1,7.37-6.14,7.68-16.48,8.21-6.09.31-14.79.64-25.23,1.04-14.54.55-32.63,1.24-51.67,2.17-12.08.59-24.28,1.27-36.33,2.01l-4.92,21.66h-145.92Z"/>
  <path class="uuid-59499aa6-4a7f-44ab-8dc1-0ff3c69e60df" d="m1200.19,932.26c-2.37-1.77-4.73-50.6-4.73-50.6l-18.34-25.73,1.18,28.4-64.49-104.8-60.94-189.25s15.38,13.46,14.2,9.39c-1.18-4.07-13.02-53.41-13.02-53.41l-18.93-16.92-11.42-40.2c-5.88-2.08-13.51-3.9-22.5-3.96-10.32-.07-18.91,2.21-25.16,4.61-3.74,13.18-7.49,26.36-11.23,39.54l-18.93,16.92s-11.83,49.34-13.02,53.41c-1.18,4.07,14.2-9.39,14.2-9.39l-60.94,189.25-64.49,104.8,1.18-28.4-18.34,25.73s-2.37,48.82-4.73,50.6c-.01,0-.03.02-.03.05-.01,1.02,40.17,1.83,86.41,4.09,17.66.86,32.18,1.74,41.9,2.37l4.84,21.3h134.21l4.84-21.3c9.73-.62,24.24-1.5,41.9-2.37,46.24-2.26,86.43-3.07,86.41-4.09,0-.02-.02-.04-.03-.05Z"/>
  <polygon class="uuid-51944ab9-9ae7-4294-a2a6-11481424e3e4" points="943.85 778.54 979.68 488.47 985.15 486.38 949.98 777.11 943.85 783.63 943.85 778.54"/>
  <polygon class="uuid-51944ab9-9ae7-4294-a2a6-11481424e3e4" points="1056.06 778.54 1020.23 488.47 1014.76 486.38 1049.93 777.11 1056.06 783.63 1056.06 778.54"/>
  <path class="uuid-e42cecfc-5f1d-4514-8c64-01826fed76fb" d="m947.38,837.55c.26,1.3-6.51,85.19-6.51,85.19l53.4-1.56-48.72,9.12-3.13,20.84,47.93,3.91s-54.45,2.34-54.45,1.56v-22.66l-129.73-7.03,36.21-9.12,87.01,5.99,7.03-16.41-20.58,10.94,6.25-58.09,25.27-22.66Z"/>
  <path class="uuid-0e20b54e-5f8e-40bd-9d41-239cc7c79189" d="m939.26,964.15l-2.57,11.8c-.08.16-.17.4-.15.68.17,2.16,6.85,3.83,12.48,3.63,4.95-.17,11.02-1.85,11.12-3.86,0-.18-.03-.34-.08-.45-.78-3.93-1.56-7.87-2.35-11.8h-18.46Z"/>
  <path class="uuid-cf303427-e72e-4139-8c01-1d0d9842a11e" d="m959.32,975.73c.03,1.36-5.6,2.92-10.63,2.88-4.98-.05-10.53-1.68-10.49-3.03.05-1.38,5.9-2.44,10.49-2.42,4.69.02,10.61,1.19,10.63,2.57Z"/>
  <path class="uuid-e42cecfc-5f1d-4514-8c64-01826fed76fb" d="m1052.53,837.55c-.26,1.3,6.51,85.19,6.51,85.19l-53.4-1.56,48.72,9.12,3.13,20.84-47.93,3.91s54.45,2.34,54.45,1.56v-22.66l129.73-7.03-36.21-9.12-87.01,5.99-7.03-16.41,20.58,10.94-6.25-58.09-25.27-22.66Z"/>
  <path class="uuid-0e20b54e-5f8e-40bd-9d41-239cc7c79189" d="m1060.65,964.15l2.57,11.8c.08.16.17.4.15.68-.17,2.16-6.85,3.83-12.48,3.63-4.95-.17-11.02-1.85-11.12-3.86,0-.18.03-.34.08-.45.78-3.93,1.56-7.87,2.35-11.8h18.46Z"/>
  <path class="uuid-cf303427-e72e-4139-8c01-1d0d9842a11e" d="m1040.59,975.73c-.03,1.36,5.6,2.92,10.63,2.88,4.98-.05,10.53-1.68,10.49-3.03-.05-1.38-5.9-2.44-10.49-2.42-4.69.02-10.61,1.19-10.63,2.57Z"/>
  <path class="uuid-9c5b3829-157b-4b3e-868a-b61fdf58b980" d="m1023.69,489.14l-18.16-63.94c-.79-2.81-3.43-4.63-6.14-4.37-2.34.23-4.36,1.97-5.01,4.37-6.12,21.53-12.23,43.06-18.35,64.59,6.25-2.4,14.84-4.68,25.16-4.61,8.99.06,16.62,1.88,22.5,3.96Z"/>
  <path class="uuid-cf303427-e72e-4139-8c01-1d0d9842a11e" d="m1071.9,847.9c-11.24-3.31-22.48-7.12-33.4-11.32-.32-.12-.64-.25-.96-.37l1.04,3.48-10.26-.4c-1.08-.04-2.2-.07-3.38-.07-3.32,0-6.67.2-9.96.58-4.4.51-8.79,1.38-13.07,2.57l-1.96.54-1.96-.54c-4.28-1.19-8.68-2.05-13.08-2.57-3.29-.38-6.64-.58-9.96-.58-1.18,0-2.3.02-3.38.07l-10.25.4,1.04-3.49c-.32.13-.65.25-.97.37-10.92,4.21-22.16,8.02-33.4,11.32l-7.21,2.12-1.94-7.26c-1.84-6.9-2.77-14.01-2.75-21.11.03-11.03,2.29-21.83,6.72-32.1l.58-1.34,30.91-30.06c3.29-4.62,6.24-9.53,8.75-14.6,2.93-5.91,5.34-12.12,7.14-18.46l4.61-41.52c-.1-8.25,1.34-20.45,8.54-32.6,3.13-5.29,7.07-10.08,11.7-14.24l4.9-4.4,4.9,4.4c4.63,4.16,8.57,8.95,11.7,14.24,7.2,12.16,8.64,24.35,8.54,32.6l4.61,41.52c1.81,6.35,4.21,12.56,7.14,18.46,2.52,5.08,5.46,9.98,8.75,14.6l30.91,30.06.58,1.34c4.43,10.28,6.69,21.08,6.72,32.1.02,7.1-.91,14.2-2.75,21.11l-1.94,7.26-7.21-2.12Z"/>
  <path class="uuid-59499aa6-4a7f-44ab-8dc1-0ff3c69e60df" d="m1070.35,792.44c-10.11-9.83-20.22-19.66-30.33-29.5-3.17-4.39-6.57-9.76-9.74-16.14-3.72-7.49-6.16-14.45-7.79-20.31-1.58-14.19-3.15-28.38-4.73-42.58.11-5.75-.5-17.37-7.51-29.22-3.31-5.58-7.12-9.68-10.29-12.52-3.17,2.84-6.98,6.94-10.29,12.52-7.02,11.85-7.62,23.47-7.51,29.22-1.58,14.19-3.15,28.38-4.73,42.58-1.63,5.86-4.07,12.82-7.79,20.31-3.17,6.38-6.57,11.75-9.74,16.14-10.11,9.83-20.22,19.66-30.33,29.5-2.68,6.21-6.09,16.38-6.12,29.22-.02,7.69,1.18,14.23,2.5,19.2,10.47-3.08,21.46-6.75,32.84-11.13,5.18-2,10.19-4.04,15.03-6.12-.83,2.78-1.67,5.57-2.5,8.35,4.16-.16,9.05-.08,14.47.56,5.41.63,10.18,1.67,14.19,2.78h0s0,0,0,0c4.01-1.11,8.77-2.15,14.19-2.78,5.42-.63,10.31-.72,14.47-.56-.83-2.78-1.67-5.57-2.5-8.35,4.84,2.08,9.85,4.13,15.03,6.12,11.38,4.38,22.37,8.05,32.84,11.13,1.33-4.97,2.52-11.51,2.5-19.2-.03-12.84-3.45-23.01-6.12-29.22Z"/>
  <path class="uuid-e42cecfc-5f1d-4514-8c64-01826fed76fb" d="m973.91,819.18c1.3-32.02,2.59-64.05,3.89-96.07l-2.88,11.26c-1.81,26.28-3.62,52.57-5.43,78.85-10.59,4.3-21.17,8.59-31.76,12.89-1.07-2.49-2.09-5.31-2.9-8.47-2.36-9.14-2.09-17.22-1.32-22.96-1.97,4.93-4.18,11.92-5.08,20.53-.88,8.43-.21,15.58.66,20.75,14.94-5.59,29.88-11.19,44.82-16.78Z"/>
  <path class="uuid-cf303427-e72e-4139-8c01-1d0d9842a11e" d="m976.11,819.84c.81-2.03,3.28-7.47,9.27-11.48,6.2-4.15,12.4-4.26,14.57-4.19-.6,8.68-1.2,17.37-1.8,26.05-.8-6.7-1.6-13.39-2.4-20.09-3.75,1.02-7.89,2.34-7.75,3.25,0,.03.01.05.02.07.57,1.35.86,2.03-1.76,11.26h0c1.14-.41,2.89-.88,5.08-.88,1.84,0,3.36.34,4.42.66-.11.24-1.6,3.56-5.3,4.19-3.91.67-6.51-2.29-6.62-2.43.66-3.75,1.32-7.51,1.99-11.26-3.83,3.68-7.65,7.36-11.48,11.04.59-2.06,1.18-4.12,1.77-6.18Z"/>
  <path class="uuid-e42cecfc-5f1d-4514-8c64-01826fed76fb" d="m1026,819.18c-1.3-32.02-2.59-64.05-3.89-96.07l2.88,11.26c1.81,26.28,3.62,52.57,5.43,78.85,10.59,4.3,21.17,8.59,31.76,12.89,1.07-2.49,2.09-5.31,2.9-8.47,2.36-9.14,2.09-17.22,1.32-22.96,1.97,4.93,4.18,11.92,5.08,20.53.88,8.43.21,15.58-.66,20.75-14.94-5.59-29.88-11.19-44.82-16.78Z"/>
  <path class="uuid-cf303427-e72e-4139-8c01-1d0d9842a11e" d="m1021.74,747.24l-3.43-2.01-3.54-30.76,3.3,3.57-.24-4.19-5.76-4.09s3.39,35.85,4.32,36.68c.93.83-12.05-1.96-12.05-1.96,0,0-.61-37.56-.65-38.22,0-.12-.02-.4.14-.68,1.14-2.06,8.72-.05,15.66,2.27-2-1.62-5.61-4.09-10.71-5.42-6.34-1.64-11.49-.59-14.25,0-6.54,1.41-11.24,4.43-13.9,6.48,8.45-2.98,17.59-5.61,18.85-3.33.16.28.15.55.14.68-.04.66-.65,38.22-.65,38.22,0,0-12.99,2.79-12.05,1.96.93-.83,4.32-36.68,4.32-36.68l-5.76,4.09-.24,4.19,3.3-3.57-3.54,30.76-3.43,2.01-.16,2.87,20.26-2.08,20.26,2.08-.17-2.87Z"/>
  <path class="uuid-cf303427-e72e-4139-8c01-1d0d9842a11e" d="m1023.8,819.84c-.81-2.03-3.28-7.47-9.27-11.48-6.2-4.15-12.4-4.26-14.57-4.19.6,8.68,1.2,17.37,1.8,26.05.8-6.7,1.6-13.39,2.4-20.09,3.75,1.02,7.89,2.34,7.75,3.25,0,.03-.01.05-.02.07-.57,1.35-.86,2.03,1.76,11.26h0c-1.14-.41-2.89-.88-5.08-.88-1.84,0-3.36.34-4.42.66.11.24,1.6,3.56,5.3,4.19,3.91.67,6.51-2.29,6.62-2.43-.66-3.75-1.32-7.51-1.99-11.26,3.83,3.68,7.65,7.36,11.48,11.04-.59-2.06-1.18-4.12-1.77-6.18Z"/>
  <path class="uuid-cf303427-e72e-4139-8c01-1d0d9842a11e" d="m1013.42,660.43c-4.13-9-9.78-14.95-13.46-18.25-3.68,3.31-9.34,9.25-13.46,18.25-5.5,11.99-5.3,22.88-4.86,28.15,4.91-7.87,13.73-12.04,22.14-10.54,9.21,1.64,13.82,9.35,14.51,10.54.45-5.26.64-16.16-4.86-28.15Z"/>
  <polygon class="uuid-e42cecfc-5f1d-4514-8c64-01826fed76fb" points="952.9 659.78 938.2 765.01 887.1 811.84 930.46 758.07 941.45 701.54 903.29 750.1 923.44 693.31 952.9 659.78"/>
  <polygon class="uuid-e42cecfc-5f1d-4514-8c64-01826fed76fb" points="1047.84 659.78 1062.54 765.01 1113.64 811.84 1070.28 758.07 1059.29 701.54 1097.45 750.1 1077.3 693.31 1047.84 659.78"/>
  <path class="uuid-e42cecfc-5f1d-4514-8c64-01826fed76fb" d="m1036.8,543.77l-36.94-13.97-36.94,13.97-10.02,46.18c8.55-4.18,25.59-11.09,48.05-10.87,21.26.22,37.42,6.73,45.87,10.87-3.34-15.39-6.68-30.79-10.02-46.18Z"/>
  <path class="uuid-2c0ea7b6-720f-4207-8994-491310072227" d="m1011.82,537.94c1.81.65,3.62,1.29,5.43,1.94-5.95,4.79-11.9,9.57-17.85,14.36,5.56-.39,11.12-.78,16.69-1.16-7.37,6.73-14.75,13.45-22.12,20.18l-13.35,3.1,19.25-16.49c-5.85.19-11.69.39-17.54.58,9.83-7.5,19.66-15,29.49-22.51Z"/>
  <path class="uuid-59499aa6-4a7f-44ab-8dc1-0ff3c69e60df" d="m1284.37,926.81c8.61-.53,15.93-2,21.54-3.51-5.61-1.51-12.93-2.98-21.54-3.51,3.16-3.83,5.55-7.47,7.29-10.49-3.02,1.74-6.66,4.13-10.49,7.29-.53-8.61-2-15.93-3.51-21.54-1.51,5.61-2.98,12.93-3.51,21.54-3.82-3.16-7.46-5.54-10.49-7.29,1.75,3.03,4.13,6.67,7.29,10.49-8.59.53-15.91,2-21.54,3.51,5.63,1.51,12.94,2.98,21.54,3.51-3.16,3.82-5.54,7.46-7.29,10.49,3.03-1.75,6.67-4.13,10.49-7.29.53,8.59,2,15.91,3.51,21.54,1.51-5.63,2.98-12.94,3.51-21.54,3.83,3.16,7.47,5.55,10.49,7.29-1.74-3.02-4.13-6.66-7.29-10.49Z"/>
  <path class="uuid-59499aa6-4a7f-44ab-8dc1-0ff3c69e60df" d="m727.32,990.45c5.71-.35,10.57-1.33,14.28-2.33-3.72-1-8.57-1.97-14.28-2.33,2.1-2.54,3.68-4.95,4.83-6.96-2,1.15-4.42,2.74-6.96,4.83-.35-5.71-1.33-10.57-2.33-14.28-1,3.72-1.97,8.57-2.33,14.28-2.54-2.09-4.94-3.68-6.96-4.83,1.16,2.01,2.74,4.42,4.83,6.96-5.7.35-10.55,1.32-14.28,2.33,3.73,1,8.58,1.97,14.28,2.33-2.09,2.54-3.68,4.95-4.83,6.96,2.01-1.16,4.42-2.74,6.96-4.83.35,5.7,1.32,10.55,2.33,14.28,1-3.73,1.97-8.58,2.33-14.28,2.54,2.1,4.95,3.68,6.96,4.83-1.15-2-2.74-4.42-4.83-6.96Z"/>
  <path class="uuid-59499aa6-4a7f-44ab-8dc1-0ff3c69e60df" d="m858.9,637.33c5.71-.35,10.57-1.33,14.28-2.33-3.72-1-8.57-1.97-14.28-2.33,2.1-2.54,3.68-4.95,4.83-6.96-2,1.15-4.42,2.74-6.96,4.83-.35-5.71-1.33-10.57-2.33-14.28-1,3.72-1.97,8.57-2.33,14.28-2.54-2.09-4.94-3.68-6.96-4.83,1.16,2.01,2.74,4.42,4.83,6.96-5.7.35-10.55,1.32-14.28,2.33,3.73,1,8.58,1.97,14.28,2.33-2.09,2.54-3.68,4.95-4.83,6.96,2.01-1.16,4.42-2.74,6.96-4.83.35,5.7,1.32,10.55,2.33,14.28,1-3.73,1.97-8.58,2.33-14.28,2.54,2.1,4.95,3.68,6.96,4.83-1.15-2-2.74-4.42-4.83-6.96Z"/>
  <path class="uuid-59499aa6-4a7f-44ab-8dc1-0ff3c69e60df" d="m1212,752.43c5.71-.35,10.57-1.33,14.28-2.33-3.72-1-8.57-1.97-14.28-2.33,2.1-2.54,3.68-4.95,4.83-6.96-2,1.15-4.42,2.74-6.96,4.83-.35-5.71-1.33-10.57-2.33-14.28-1,3.72-1.97,8.57-2.33,14.28-2.54-2.09-4.94-3.68-6.96-4.83,1.16,2.01,2.74,4.42,4.83,6.96-5.7.35-10.55,1.32-14.28,2.33,3.73,1,8.58,1.97,14.28,2.33-2.09,2.54-3.68,4.95-4.83,6.96,2.01-1.16,4.42-2.74,6.96-4.83.35,5.7,1.32,10.55,2.33,14.28,1-3.73,1.97-8.58,2.33-14.28,2.54,2.1,4.95,3.68,6.96,4.83-1.15-2-2.74-4.42-4.83-6.96Z"/>
  <path class="uuid-59499aa6-4a7f-44ab-8dc1-0ff3c69e60df" d="m1401.16,1039.54c5.71-.35,10.57-1.33,14.28-2.33-3.72-1-8.57-1.97-14.28-2.33,2.1-2.54,3.68-4.95,4.83-6.96-2,1.15-4.42,2.74-6.96,4.83-.35-5.71-1.33-10.57-2.33-14.28-1,3.72-1.97,8.57-2.33,14.28-2.54-2.09-4.94-3.68-6.96-4.83,1.16,2.01,2.74,4.42,4.83,6.96-5.7.35-10.55,1.32-14.28,2.33,3.73,1,8.58,1.97,14.28,2.33-2.09,2.54-3.68,4.95-4.83,6.96,2.01-1.16,4.42-2.74,6.96-4.83.35,5.7,1.32,10.55,2.33,14.28,1-3.73,1.97-8.58,2.33-14.28,2.54,2.1,4.95,3.68,6.96,4.83-1.15-2-2.74-4.42-4.83-6.96Z"/>
  <path class="uuid-59499aa6-4a7f-44ab-8dc1-0ff3c69e60df" d="m1403.42,1172.35c8.61-.53,15.93-2,21.54-3.51-5.61-1.51-12.93-2.98-21.54-3.51,3.16-3.83,5.55-7.47,7.29-10.49-3.02,1.74-6.66,4.13-10.49,7.29-.53-8.61-2-15.93-3.51-21.54-1.51,5.61-2.98,12.93-3.51,21.54-3.82-3.16-7.46-5.54-10.49-7.29,1.75,3.03,4.13,6.67,7.29,10.49-8.59.53-15.91,2-21.54,3.51,5.63,1.51,12.94,2.98,21.54,3.51-3.16,3.82-5.54,7.46-7.29,10.49,3.03-1.75,6.67-4.13,10.49-7.29.53,8.59,2,15.91,3.51,21.54,1.51-5.63,2.98-12.94,3.51-21.54,3.83,3.16,7.47,5.55,10.49,7.29-1.74-3.02-4.13-6.66-7.29-10.49Z"/>
  <path class="uuid-59499aa6-4a7f-44ab-8dc1-0ff3c69e60df" d="m1127.17,553.16c8.61-.53,15.93-2,21.54-3.51-5.61-1.51-12.93-2.98-21.54-3.51,3.16-3.83,5.55-7.47,7.29-10.49-3.02,1.74-6.66,4.13-10.49,7.29-.53-8.61-2-15.93-3.51-21.54-1.51,5.61-2.98,12.93-3.51,21.54-3.82-3.16-7.46-5.54-10.49-7.29,1.75,3.03,4.13,6.67,7.29,10.49-8.59.53-15.91,2-21.54,3.51,5.63,1.51,12.94,2.98,21.54,3.51-3.16,3.82-5.54,7.46-7.29,10.49,3.03-1.75,6.67-4.13,10.49-7.29.53,8.59,2,15.91,3.51,21.54,1.51-5.63,2.98-12.94,3.51-21.54,3.83,3.16,7.47,5.55,10.49,7.29-1.74-3.02-4.13-6.66-7.29-10.49Z"/>
  <path class="uuid-59499aa6-4a7f-44ab-8dc1-0ff3c69e60df" d="m607.82,1144.11c8.61-.53,15.93-2,21.54-3.51-5.61-1.51-12.93-2.98-21.54-3.51,3.16-3.83,5.55-7.47,7.29-10.49-3.02,1.74-6.66,4.13-10.49,7.29-.53-8.61-2-15.93-3.51-21.54-1.51,5.61-2.98,12.93-3.51,21.54-3.82-3.16-7.46-5.54-10.49-7.29,1.75,3.03,4.13,6.67,7.29,10.49-8.59.53-15.91,2-21.54,3.51,5.63,1.51,12.94,2.98,21.54,3.51-3.16,3.82-5.54,7.46-7.29,10.49,3.03-1.75,6.67-4.13,10.49-7.29.53,8.59,2,15.91,3.51,21.54,1.51-5.63,2.98-12.94,3.51-21.54,3.83,3.16,7.47,5.55,10.49,7.29-1.74-3.02-4.13-6.66-7.29-10.49Z"/>
  <path class="uuid-59499aa6-4a7f-44ab-8dc1-0ff3c69e60df" d="m748.31,798.56c8.61-.53,15.93-2,21.54-3.51-5.61-1.51-12.93-2.98-21.54-3.51,3.16-3.83,5.55-7.47,7.29-10.49-3.02,1.74-6.66,4.13-10.49,7.29-.53-8.61-2-15.93-3.51-21.54-1.51,5.61-2.98,12.93-3.51,21.54-3.82-3.16-7.46-5.54-10.49-7.29,1.75,3.03,4.13,6.67,7.29,10.49-8.59.53-15.91,2-21.54,3.51,5.63,1.51,12.94,2.98,21.54,3.51-3.16,3.82-5.54,7.46-7.29,10.49,3.03-1.75,6.67-4.13,10.49-7.29.53,8.59,2,15.91,3.51,21.54,1.51-5.63,2.98-12.94,3.51-21.54,3.83,3.16,7.47,5.55,10.49,7.29-1.74-3.02-4.13-6.66-7.29-10.49Z"/>
  <path class="uuid-cf303427-e72e-4139-8c01-1d0d9842a11e" d="m1564.81,1603.68c-97.02-98.72-313.43-167.45-564.85-167.45s-467.84,68.72-564.85,167.45h1129.71Z"/>
  <path class="uuid-cf303427-e72e-4139-8c01-1d0d9842a11e" d="m999.95,1244.58c-236.9,0-437.38,155.89-504.48,370.67h1008.97c-67.1-214.79-267.59-370.67-504.48-370.67Z"/>
  <path class="uuid-76e4ca81-f290-46f9-9c76-0b31909c7dd1" d="m650.59,1398.35c-17.57,17.09-31.61,37.39-45.53,57.56-26.42,38.3-53.13,77.25-68.1,121.3-1.62,4.75-2.94,10.47.17,14.42,2.74,3.48,8.09,3.97,12.16,2.22,4.07-1.75,7.12-5.23,9.8-8.75,16.09-21.09,24.25-47.07,37.47-70.06,5.61-9.76,12.14-18.97,19.05-27.85,16.07-20.63,34.32-39.56,54.35-56.37,1.49-1.25,5.15-4.13,6.04-3.37,2.98,2.53-28.96,41.2-25.74,44.18,2.41,2.22,19.58-19.75,53.59-43.49,13.5-9.42,51.33-34.26,72-57.88,4.24-4.85,9.93-12.03,7.53-16.3-1.96-3.49-6.67-4.63-10.56-3.69s-7.17,3.49-10.31,5.98c-.28-5.56-.56-11.12-.85-16.68-.07-1.34-.17-2.78-1.01-3.83-.88-1.1-2.36-1.51-3.76-1.62-4.77-.39-9.32,1.87-13.57,4.07-32.85,17-66.22,34.38-92.74,60.17Z"/>
  <path class="uuid-60db3cdf-d6ec-4080-b9d4-f84b6e1d6ae0" d="m831.68,1565.53c1.87-20.42-12.9-39.26-6.69-59.37-21.19,28.28-34.21,62.01-38.4,96.97h43.81c-.58-.89-1.11-1.83-1.54-2.86-4.29-10.37,1.74-22.92,2.82-34.74Z"/>
  <path class="uuid-60db3cdf-d6ec-4080-b9d4-f84b6e1d6ae0" d="m911.11,1484.8c-15.44,12.6-25.95,31.5-29.45,51.44-12.53-6.27-21.47-20.86-21.19-36.68,4.08-.2,8.15-.34,12.22-.43-1.92-32.22-1.24-64.28-.12-96.5-22.93,14.97-37.69,49.98-37.11,76.3.55,24.94,10.6,55.39,22.13,77.46,8.07,15.44,16.7,30.89,24.68,46.74h30.1c-10.46-38.35-7.68-79.26-1.26-118.33Z"/>
  <path class="uuid-60db3cdf-d6ec-4080-b9d4-f84b6e1d6ae0" d="m1146.74,1601.33c-19.76-22.18-20.77-52.81-23.3-82.49-.57,22.2-14.92,63.06-14.94,63.05,0,0-8.21-44.95-4.26-66.95-10.36,19.05-14.91,64.18-15.35,64.26,0,0-9.75-26.38-13.01-40.28-8.74,7.29-8.74,22.15-7.06,34.52,1.37,10.08,3.4,20.02,5.98,29.69h73.68c-.59-.56-1.17-1.15-1.74-1.8Z"/>
  <path class="uuid-3267ca73-5fe7-492c-8c43-f9ad82f586cc" d="m677.94,1433.44c5.5-5.97,11.73-13.42,10.64-19.83-14.08,6-27.09,16.54-39.06,27.84-29.5,27.86-54.2,60.75-73.4,96.49-8.21,15.28-15.62,31.33-26.2,45.25-3.43-1.98-1.85-9.03.15-14.63,9.31-25.97,23.25-52.19,37.57-75.54,25.74-41.98,56.15-85.55,95.94-115.8,19.8-15.05,41.59-27.08,63.86-34.8-11.74,12.16-23.1,24.71-34.06,37.6,13.89-4.92,27.67-10.73,41.15-17.33-14.2,15.49-27.78,31.55-40.72,48.11,12.38-5.37,23.04-15.83,33.65-24.31,86.53-69.14,189.56-91.55,301.88-86.05-47.99-30.12-107.66-36.46-159.24-30.32-56.82,6.77-112.9,30-162.94,60.54-42.16,25.72-81.96,58.21-113.63,95.42-22.08,25.94-40.47,55.75-58.37,86.42-15.17,25.99-28.9,56.01-37.06,85.06-.51,1.81-.98,3.71-1.33,5.58h58.85c18.9-63.8,57.59-121.08,102.33-169.69Z"/>
  <path class="uuid-3267ca73-5fe7-492c-8c43-f9ad82f586cc" d="m1438.34,1581.52c-.44-8.83-.99-17.79-3.28-27.01-4.02-16.13-13.26-32.09-24.14-45.91-6.81-8.65-15.16-17.18-24.01-19.45,20.93,12.39,35.36,42.65,30.92,62.86-3.85-11.11-13.22-21.36-22.9-25.03-2.57-.97-5.24-1.51-7.35-.72-1.77.66-3,2.19-4.06,3.79-7.89,11.85-9.01,29.88-3.78,47.36,1.42-6.33,2.83-12.79,6.02-17.76,3.19-4.96,8.54-8.27,14.95-6.73,8.2,1.97,15.98,11.49,19.67,21.08,3.69,9.59,4.18,19.24,4.49,28.52,0,.2,0,.4.01.6h14.3c-.21-7.18-.47-14.38-.83-21.61Z"/>
  <path class="uuid-3267ca73-5fe7-492c-8c43-f9ad82f586cc" d="m1397.98,1582.79l.71,5.83c.57-.68,1.14-1.37,1.3-2.37.22-1.32-.79-3.4-2.01-3.46Z"/>
  <path class="uuid-be629f57-2e5f-4308-ac73-ec0ed19262b2" d="m1406.84,1603.13c-7.21-13.78-8.03-29.12-8.54-43.33-3.24,5.93-5.42,12.75-6.76,20.06l-.62-5.06c-.36.43-.71.85-1.04,1.3-4.66,6.32-4.04,17.26-.24,27.04h17.2Z"/>
  <path class="uuid-59499aa6-4a7f-44ab-8dc1-0ff3c69e60df" d="m1363.87,1420.29c10.51,10.95,27.29,28.44,23.22,35.05-3.6,5.84-18.59-4.75-35.05.44-23.62,7.45-41.28,44.55-36.23,75.54,5.78,35.48,39.68,50.17,33.67,62.76-3.68,7.71-18.92,12.4-62.89,5.32-8.33,2.55-17.6.62-25.11-3.8-7.51-4.42-13.43-11.13-18.32-18.34-20.59-30.38-23.48-71.91-7.29-104.85-19.24,4.69-36.53,16.92-47.35,33.5-4.45-15.04-.07-31.17,4.95-46.03,6.75-19.98,15.6-33.66,18.7-37.83,6.39-8.61,22.69-31.39,53.23-39.73,27.75-7.58,51.33,1.02,59.94,4.68,10.35,7.37,24.11,18.25,38.55,33.29Z"/>
  <path class="uuid-76e4ca81-f290-46f9-9c76-0b31909c7dd1" d="m1041.14,1568.33c-3.92-20.51-7.36-41.27-6.95-62.14.41-20.88,4.86-42.06,15.75-59.88-13.97,8.29-23.47,22.23-32.52,35.72,4.22-19.58,9.94-39.03,19.54-56.61,25.56-46.81,79.77-76.35,132.96-72.45,2.69.2,5.67.63,7.36,2.73,2.15,2.69.98,6.92-1.56,9.24-2.54,2.33-6.01,3.25-9.32,4.2-39.58,11.32-75.02,36.59-98.6,70.33,15.42-11.11,31.76-22.36,50.58-25.06-12.35,11.15-23.79,23.32-34.15,36.35,7.85-2.09,15.69-4.18,23.54-6.27,6.59-1.76,13.57-3.51,20.13-1.68,1.94.54,3.91,1.49,4.99,3.19,2.91,4.6-2.23,9.95-6.6,13.2-13.29,9.87-24.71,22-36.05,34.07-20.73,22.06-42.26,45.57-49.1,75.06Z"/>
  <path class="uuid-76e4ca81-f290-46f9-9c76-0b31909c7dd1" d="m695.1,1615.22c-6.86-6.58-4.36-17.88-1.36-26.9l6.65-20.01c7.87-23.68,17.27-49.32,38.7-62.11.46,4.77.92,9.55,1.38,14.32,9.92-19.44,26.25-35.54,45.83-45.18,1.25-.62,2.69-1.22,4.01-.74,2.1.77,2.36,3.61,2.11,5.83-2.13,18.38-14.68,33.61-22,50.6-8.39,19.45-9.85,41.12-10.31,62.3-.09,4.23-.24,8.76-2.72,12.19-1.96,2.7-5.07,4.29-8.13,5.62-11.68,5.11-24.32,8.03-37.07,8.55-6.05.25-12.72-.27-17.09-4.47Z"/>
  <path class="uuid-3267ca73-5fe7-492c-8c43-f9ad82f586cc" d="m822.72,1499.47c-1.73,28.68,4.07,47.99,9.9,60.51,3.61,7.74,9.69,18.15,8.8,18.7-.72.45-5.95-5.7-9.9-12.84-7.79-14.09-6.68-24.97-8.07-24.94-2.34.06-9,31.13,5.41,59.36.59,1.15,1.12,2.12,1.54,2.86h51.87c-7.99-9.52-18.73-24.04-28.01-43.51-9.3-19.52-22.16-46.5-18.79-80.69,3.86-39.3,26.97-65.94,37.11-76.3-1.12,32.22-1.8,64.28.12,96.5-4.06.09-8.14.23-12.22.43-.28,15.82,8.66,30.42,21.19,36.68,3.49-19.94,14-38.84,29.45-51.44-6.42,39.07-9.2,79.98,1.26,118.33.5-35.1,3.94-44.45,7.54-44.98,7.27-1.08,18.2,33.43,23.47,31.91,3.39-.98-.41-15.44,4.77-17.97,6.07-2.97,15.87,14.65,37.41,24.57,9.7,4.47,18.65,5.93,24.71,6.47-2.96-4.81-5.94-13.06-10.45-22.82-4.4-9.55-8.78-22.42-2.42-30.51,4.77-6.08,13.77-6.09,18.03-12.7,2.7-4.19,2.66-9.84,2.48-15.05-.76-21.82-1.64-43.63-2.63-65.45-11.39,14.68-18.38,32.71-20.77,51.38-.51,3.94-.96,8.24-3.49,11.06-2.94,3.29-7.77,3.38-11.64,1.77-9.24-3.83-14.2-14.97-17.16-25.49-5.63-20.01-7.42-41.44-4.15-62.35-13.61,16.42-13.14,40.25-7.18,59.99,5.96,19.75,16.42,37.3,23.67,56.37,1.93,5.08,2.36,13.21-2.27,14.16-1.16.24-2.37-.13-3.45-.56-28.1-11.25-43.8-43.24-46.62-72.7-3.22-33.7,10.35-64.03,23.9-93.73,10.64-23.33,33.18-50.35,57.82-58.82,26.41-9.07,59.19-5.36,86.81-3.7-28.1-24.69-67.54-29.98-103.23-28.15-91.55,4.7-168.81,30.98-231.84,100.82,7.31-3.66,14.67-7.15,22.06-10.49,1.86-.84,3.99-1.68,5.58-.98,3.19,1.4.81,6.52-1.7,9.75-12.11,15.59-23.59,31.6-34.43,47.97-5.47,8.26-12.32,17.71-21.14,19.11,1.25-11.91,4.65-24.1,10.16-35.74-21.28,15.66-38.48,38.14-48.35,62.29-1.59,3.9-2.57,9.18.61,10.22,1.84.61,4.14-.68,6.16-1.89,7.05-4.25,14.15-8.33,21.28-12.23-7.68,19.91-16.9,39.45-27.31,58.35-7.03-1.88,4.81-18.37-.59-23.19-5-4.46-12.76,8.75-20.09,10.44.92-10.08,1.98-20.18,3.2-30.31-23.56,27.27-38.07,50.11-52.98,82.93,6.81,2.17,17.43,4.34,27.73.1,21.04-8.68,27.4-38.69,29.05-38.11.77.27-.35,6.97-9.9,38.14,5.71-2.87,13.13-7.43,20.17-14.67,14.67-15.09,19.65-33.58,20.17-33.37.88.35-19.92,50.94-11.52,56.78,2.46,1.71,4.74,1.09,4.74,1.09,2.46-.84,3.91-4.05,4.87-6.85,8.51-24.74,11.28-53.1,29.16-72.7-3.48,12.29-3.85,24.93-1.35,36.28,6.7-26.94,27.05-57.3,49.74-73.37-12.38,26.82-23.02,57.79-27.5,86.99-1.55,10.07-2.34,20.52-.59,29.97h33.69c2.48-14.87,6.44-32.18,12.83-50.99,7.08-20.83,15.43-38.45,23.3-52.67Z"/>
  <path class="uuid-3267ca73-5fe7-492c-8c43-f9ad82f586cc" d="m1437.51,1507.16c-68.61-112.66-165.62-172.04-221.83-200.18-10.85,6.37-21.69,12.73-32.54,19.1,32.08,7.69,61.1,21.45,90.38,36.17-1.46,1.11-3.2,1.9-5.13,2.36-3.55.84-6.11.1-6.18.34-.25.9,37.63,6.59,66.08,25.91,17.29,11.75,28.18,26.55,34.95,38.06-9.68-6.78-22.42-14.37-38.22-20.71-10.92-4.38-21.09-7.27-29.95-9.21,32.48,17.25,54.52,29.76,79.78,56.63-4,.66-7.98,1.37-11.95,2.13,22.43,15.31,46.06,36.92,60.73,59.85,16.02,25.03,25.52,55.94,21.76,85.53,12.74.7,25.48,1.39,38.23,2.09-10.41-30.06-25.1-63.55-46.11-98.06Z"/>
  <path class="uuid-3267ca73-5fe7-492c-8c43-f9ad82f586cc" d="m1068.45,1554.28c3.74-14.84,9.56-26.45,14.42-34.49,2.01,19.8,4.02,39.61,6.03,59.41.44-.09,4.99-45.21,15.35-64.26-3.95,22.01,4.26,66.95,4.26,66.95.02.01,14.37-40.86,14.94-63.05,2.53,29.68,3.53,60.31,23.3,82.49.58.65,1.16,1.24,1.74,1.8h180.59c-18.05-37.11-30.37-76.41-30.37-76.41-.81-.23-12.14,27.99-11.1,44.57-9.07-7.25-10.08-21.23-10.05-32.73.07-23.84-.55-47.86-1.86-72.02-6.12,5.39-24.63,24.91-24.05,57.3.64,35.89,28.74,67.04,25.89,69.1-2.31,1.67-21.6-17.03-32.84-44.17-12.29-29.66-8.18-56.16-6.46-65.45,5.48-29.55,30.87-51.14,30.87-51.14-.01-.02-17.52,10.31-26.36,17.29-13.73,10.84-33.03,33.49-33.03,33.49-.44-.1-2.37-11.38-2.25-19.55.47-32.1,24.14-51.64,39.4-62.17,26.54-18.32,51.96-20.21,51.38-20.64-14.66-10.93-73.96,7.54-98.31,31.8-21.64,20.48-31.47,45.41-42.23,41.72-6.32-2.17-10.26-13.41-10.59-19.52-1.82-33.58,74.24-60.47,74.24-60.47,0-.06-17.26-.49-26.48.09-15.92.99-25.04,4.69-25.64,3.12-.75-1.96,12.15-10.44,27.8-15.22,24.3-7.42,43.22-2.24,43.49-3.88.63-3.85-103.92-24.77-103.92-24.77-.87-1.81,31.17-23.03,52.92-21.08-.04-2.05-2.07-5.07-3.84-5.42-15.67-3.12-43.39,4.71-64.47,8.86-4.08.8-8.72,2.17-9.58,5.75-.79,3.3,2.09,6.89,1.84,10.31-.46,6.26-9.67,7.32-16.74,7.26-32.58,2.47-65.34,7.04-92.04,26.71-21.77,16.04-40.57,50.94-36.89,79.07,11.56-18.71,46.14-47.15,46.14-47.15.91.6-.18,38.44-.18,38.44.67.16,18.66-19.86,18.87-19.79,1.37.49,1.78,29.19,1.78,29.19.02-.05.05-.12.08-.2,3.84-9.63,19.31-48.46,59.23-70.89,35.7-20.06,71.22-15.9,83.1-13.98-15.7,2.48-61.69,11.89-97.08,52.04-17.01,19.3-25.86,39.22-30.58,53.14,6.53-11,16.6-25.04,31.7-38.44,27.62-24.52,57.12-33.6,73.16-37.24-16.72,7.51-47.96,24.5-71.94,59.05-10.74,15.47-17.26,30.49-21.33,42.66,4.4-6.05,10.57-13.24,19-20.13,15.45-12.64,31.17-18.3,41.16-20.97-12.54,8.96-29.43,23.18-45.05,44.27-12.84,17.35-20.84,33.97-25.86,46.84-4.57-11.41-6.44-36.49-6.44-36.49-.21-.03-15.03,93.94-15.03,93.94-.17.03-7.26-16.2-12.58-22.81.91,9.66,3.89,18.67,8.15,26.71,13.89-.34,27.78-.68,41.67-1.02-1.45-10.76-2.37-27.86,2.67-47.84Z"/>
  <path class="uuid-3267ca73-5fe7-492c-8c43-f9ad82f586cc" d="m1357.88,1557.06c-5.75-23.9-4.29-48,5.48-65.5-14.97,4.92-25.52,17.91-29.54,34.39-8.82-26.14-.62-61.26,12.35-84.7-15.04.71-27.79,7.66-35.93,18.69,2.19-11.39,6.85-21.64,13.86-29.69-22.73,1.87-31.6,27.34-29.34,51.02,3.35,35.06,21.72,68.62,47.25,93.1-9.86-5.22-18.98-13.41-25.92-23.3,2.19,18.21,8.14,35.99,17.08,52.07h44.69c-9.18-14.3-16.16-30.13-19.99-46.08Z"/>
  <path class="uuid-59499aa6-4a7f-44ab-8dc1-0ff3c69e60df" d="m1062.48,1478.55c-1.27,4.33-2.66,10.15-3.45,17.25,7.56-9.85,21.5-24.92,43.51-34.37,6.8-2.92,13.27-4.83,19.09-6.09-2.98,1.79-8.55,5.31-14.89,10.51-37.59,30.82-53.7,80.79-46.87,113.9.85,4.12,2.89,12.06,4.22,11.91,1.84-.21.22-15.57,2.59-31.57,2.51-17,9.51-30.29,15.53-39.33-2.54,28.4-4.53,61.95.78,62.97,1.78.34,5.78-2.4,7.22-9.47,4.92-24.13,10.09-49.17,24.81-68.92,2.61-3.5,12.41-19.4,31.3-28.81,17.62-8.79,36.47-8.93,36.3-11.14-.1-1.24-6.13-2.02-11.9-2.07-24.07-.2-39.16,12.36-42.04,9.1-1.33-1.51-.02-6.41,12.02-21.52,3.99-4.33,5.54-7.26,4.66-8.8-1.44-2.51-9.38-1.31-23.81,3.62-21.89,9.69-28.21,9.59-29.69,7.43-3.74-5.44,19.56-29.61,42.49-45.56,17.75-12.34,34.56-19.25,46.43-23.22-2.8.53-8.81,1.74-16.21,3.94-5.84,1.74-83.22,26.01-102.07,90.24Z"/>
  <path class="uuid-76e4ca81-f290-46f9-9c76-0b31909c7dd1" d="m952.01,1377.16c.11,1.07-10.6,1.73-23.91,6.94-7.74,3.03-15.21,6.76-22.27,11.14,14.8-4.36,30.36-6.15,45.77-5.25-7.18,2.06-16.68,5.34-27.22,10.7-7.68,3.91-27.85,14.99-45.92,35.7-26.27,30.11-31.97,62.1-34.84,61.25-1.37-.41-1.17-8.01,5.87-39.98-9.69,16.86-19.41,34.83-28.97,53.91-11.65,23.24-21.85,45.7-30.81,67.12,6.97-49.46,21.72-83.19,34.84-105.62,6.51-11.14,20.04-32.16,18.34-33.37-1.4-1-12.26,11.99-13.57,13.57-16.73,20.1-23.26,36.14-24.19,35.71-1.15-.53,6.43-26.17,24.57-52.37,7.86-11.35,17.7-21.22,28.34-30.03,11.75-9.73,22.2-14.86,24.47-16.01,4.53-2.29,22.32-10.97,47.3-13.58,11.42-1.19,22.09-.88,22.2.19Z"/>
  <path class="uuid-76e4ca81-f290-46f9-9c76-0b31909c7dd1" d="m1145.59,1486.87c.45.12-2,5.34-3.33,12.53-.77,4.18-1.2,8.34-1.28,12.41,2.04-7.76,5.27-15.48,9.5-22.7-1.01,3.76-2.13,8.82-2.7,14.7-.42,4.29-1.19,15.69,2.32,27.6,5.1,17.32,16.13,25.11,15.07,26.35-.51.59-3.42-.71-14.09-9.14,4.12,7.3,8.67,14.79,13.69,22.39,6.11,9.25,12.29,17.68,18.37,25.36-17.51-11.17-26.93-23.56-32.36-33.39-2.7-4.88-7.47-14.67-8.37-14.05-.74.51,1.58,7.76,1.86,8.63,3.61,11.18,8.21,16.84,7.81,17.22-.5.47-8.57-7.22-14.2-20.04-2.44-5.55-3.8-11.82-4.55-18.3-.82-7.16-.19-12.96-.06-14.23.25-2.53,1.36-12.41,6.64-24.75,2.42-5.65,5.23-10.69,5.68-10.58Z"/>
  <path class="uuid-cf303427-e72e-4139-8c01-1d0d9842a11e" d="m1720.24,1634.31H279.67c-23.71,0-44.93-12.26-56.79-32.79-11.85-20.53-11.85-45.04,0-65.57L943.17,288.38c11.85-20.53,33.08-32.79,56.78-32.79s44.93,12.26,56.79,32.79l720.29,1247.58c11.85,20.53,11.85,45.05,0,65.58-11.85,20.53-33.08,32.78-56.79,32.78ZM999.95,292.24c-10.46,0-19.82,5.41-25.05,14.46L254.61,1554.28c-5.23,9.06-5.23,19.87,0,28.93,5.23,9.06,14.59,14.46,25.05,14.46h1440.58c10.46,0,19.82-5.41,25.05-14.46,5.23-9.06,5.23-19.87,0-28.93L1025.01,306.7c-5.23-9.06-14.59-14.46-25.05-14.46Z"/>
  <g>
    <g>
      <path class="uuid-59499aa6-4a7f-44ab-8dc1-0ff3c69e60df" d="m738.59,1249.52c2.71-3.66,5.41-7.32,8.12-10.98.8-1.08,1.6-2.16,2.47-3.18,1.3-10.69,6.62-20.84,14.66-28,3.94-3.51,8.47-6.29,12.97-9.05,3.91-2.4,7.85-4.81,12.19-6.3,5.37-1.84,10.34-1.07,13.49-.5.12.15.24.33.35.51.35-.08.7-.15,1.05-.23,2.92-.67,5.78-1.6,8.54-2.76,1.43-.6,2.86-1.27,4.4-1.41,2.38-.22,4.68.85,6.84,1.89,1.23.59,2.59,1.35,2.89,2.68.21.94-.18,1.9-.57,2.79-.53,1.21-1.07,2.43-1.6,3.64-.3.69-.64,1.4-1.11,1.97.04.04.08.08.11.12.58.69,1.1,1.43,1.57,2.2.51-.06,1,.04,1.32.43.41.5.33,1.22.42,1.87.06.39.27.8.57,1.03,1.82-1.11,3.72-2.14,5.8-2.6,2.12-.47,4.47-.28,6.26.95,1.63,1.12,2.65,3.02,2.87,4.99.22,1.97-.33,3.98-1.35,5.67-.94,1.57-2.31,2.97-2.62,4.77.1-.22.21-.43.31-.65.62,2.22-1.77,4.43-3.95,3.7.97,1.42.58,3.56-.8,4.58,1.72,1.84,3.89,3.27,6.28,4.04,1.73-1.11,3.28-2.5,4.54-4.13,2.64-3.39,4.05-7.65,6.89-10.88,4.85-5.53,13.09-7.2,17.75-12.89,1.53-1.86,2.58-4.07,4.01-6.01.5-.67,1.06-1.31,1.68-1.89-28.92-74.3-28.15-135.48-.83-152.88,5.65-3.6,14.79-6.83,29.85-4.53l1.77-13.02,117.4-27.74,3.76,11.93c5.25-2.84,18.49-8.61,34.64-4.5,20.46,5.21,29.38,22.15,30.67,24.72,6.04,10.51,12.2,23.1,17.43,37.74,10.37,29.01,13.26,55.27,13.64,74.91,17.73,7.63,33.97,18.7,47.51,32.46,4.24,4.31,8.28,8.94,13.41,12.15,2.42,1.52,5.22,2.87,6.44,5.44.72,1.51.79,3.26,1.38,4.82.72,1.89,2.17,3.41,3.58,4.86,6.76,6.97,13.58,13.98,21.49,19.61,3.21,2.28,6.7,4.44,8.71,7.82,2.74,4.61,2.37,10.91,6.17,14.7,1.43,1.43,3.33,2.33,4.7,3.82,3.18,3.44,2.65,8.75,2.71,13.43.08,6.83,1.85,13.64,5.12,19.64,1.21,2.22,2.66,4.48,2.63,7-.02,1.95-1.43,3.97-3.17,4.43-.04,2.32-.35,4.61-1.48,6.6-1.74,3.07-5.35,5.46-5.19,8.99.07,1.56.93,3.05.74,4.61-.37,3.1-4.67,4.95-4.3,8.05.12,1.01.74,1.87,1.29,2.73,5.15,8.12,4.04,19.66-2.55,26.66-1.54,1.63-1.74,1.8-2.74,3.56-2.63,4.64-1.43,7.97-2.54,12.66-.87,3.63-1.9,2.94-6.01,10.23-4.72,8.36-7.27,12.89-5.67,16.75,1.71,4.13,6.37,3.08,8.07,7.81,1.61,4.46-1.01,9.66-1.56,10.75-.48.95-1.34,2.44-2.87,4.1-8.51,9.23-24.6,9.31-27.3,9.29-2.02-.02-5-.17-8.61-.83-.38.79-2.23,4.41-5.66,4.99-3.83.65-7.09-2.82-8.85-5.06-1.67-2.13-3.13-4.49-3.81-7.11-.71-2.74-.53-5.62-.35-8.44.58-9.07,1.16-18.15,1.74-27.22.08-1.26.16-2.55-.24-3.74-.33-1.01-.98-1.88-1.55-2.78-2.4-3.73-3.69-8.17-3.68-12.61,0-1.36.11-2.77-.44-4.01-.44-.99-1.25-1.75-1.88-2.63-1.7-2.38-1.92-5.35-1.61-8.33-.29.17-.59.33-.87.52-4.28,2.8-7,7.44-9.03,12.14-.4.92-.78,1.88-.84,2.88-.07,1.34.45,2.62.96,3.86,2.87,6.94,5.73,13.88,8.6,20.82,4.39,10.62,8.84,22.3,5.5,33.29-.88,2.88-2.26,5.58-3.13,8.46-1.77,5.91-1.26,12.21-1.55,18.37-.59,12.4-4.6,24.61-11.47,34.94-3.35,5.04-7.76,9.84-13.18,12.25-5.64,4.65-14.74,2.82-22.05.53-8.61-2.7-17.67-5.68-23.66-12.43-5.71-6.42-7.71-15.19-10.65-23.26-2.35-6.45-5.4-12.6-8.73-18.61-3.33-4.96-6.38-10.11-9.14-15.41-.87-1.19-1.91-2.21-3.32-2.49-1.36-.28-2.84.76-3.27,1.94l-1.05.89c.2,2.04.41,4.07.61,6.11,2.36,9.41,3.4,19.15,3.03,28.85-.14,3.65-.47,7.31-1.4,10.85-.93,3.59-2.46,6.98-4.04,10.34-1.02,4.32-2.03,8.64-3.05,12.95-2.38,10.09-4.91,20.52-11.22,28.74-5.4,7.04-13.47,12.03-22.22,13.54-8.75,1.51-18.09-.53-25.32-5.68-3.07-2.18-5.73-4.87-8.38-7.55-2.79-2.82-5.61-5.68-7.59-9.11-2.62-4.53-3.62-9.79-4.57-14.94-1.76-9.46-3.53-18.92-5.29-28.38-.68-3.67-1.37-7.36-2.65-10.87-1.98-5.44-5.33-10.32-7.2-15.8-1.84-5.4-2.18-11.19-2.36-16.9-.24-7.93-.19-15.86.15-23.79.24-5.64,2.67-13.84,1.38-19.3-1.17-4.97-8.18-9.7-11.16-13.89-3.85-5.42-6.77-11.6-7.07-18.34-.17-3.88.63-7.98,3.12-10.96,2.49-2.98,6.95-4.5,10.45-2.83,1.86.89,3.74,2.61,5.66,1.86,1.64-.64,2.2-2.78,3.7-3.68-.14-.1-.28-.2-.43-.29-2.23-1.32-4.86-1.8-7.18-2.93-6.88-3.36-9.85-11.54-15.56-16.65-1.8-1.61-3.86-2.9-5.68-4.48-3.69-3.21-6.25-7.5-8.75-11.71-1.41-2.39-2.86-4.85-3.29-7.59-.15-.93-.14-1.9,0-2.84-6.6,5.38-13.07,10.99-20.52,15.09-6.04,3.32-12.59,5.58-19.1,7.82-1.12.39-2.3.78-3.48.63-.34-.04-.69-.16-1-.31-.32.69-.73,1.34-1.18,1.95-5.61,7.49-15.55,10.01-24.73,11.83-9.27,1.84-18.78,3.46-28.14,2.17-9.37-1.29-18.71-5.96-23.48-14.12-.9-1.54-1.66-3.23-2.99-4.41-1.25-1.11-2.96-1.73-3.91-3.11-1.26-1.84-.74-4.31-.97-6.52-.27-2.58-1.55-4.77-3.13-6.87-.45,1.34-1.15,2.62-1.84,3.86-.9,1.62-1.81,3.23-2.71,4.85-.32.58-.67,1.19-1.24,1.53-.63.38-1.41.38-2.15.37-2.48-.04-4.96-.09-7.44-.13-5.85-8.99-12.43-17.51-19.64-25.44,1.61-2.29,1.16-5.56-.34-7.93-1.5-2.37-3.85-4.05-6.14-5.67-2.19-1.55-4.39-3.1-6.58-4.65-.12-4.68,2.79-8.82,5.57-12.58Z"/>
      <path class="uuid-59499aa6-4a7f-44ab-8dc1-0ff3c69e60df" d="m1051.35,1427.23c-.44-.52-.48-1.13-.27-1.71l2.12-1.79c-.62,1.17-1.23,2.33-1.85,3.5Z"/>
    </g>
    <path class="uuid-60db3cdf-d6ec-4080-b9d4-f84b6e1d6ae0" d="m1047.71,1518.31c6.72-4.72,8.3-13.88,8.87-22.07,1.53-21.89-.14-44-4.94-65.42-.31-1.39-.6-2.9-.66-4.36-.02-.13-.02-.26-.02-.4,0-.15,0-.3,0-.44l-.95.8c.2,2.04.41,4.07.61,6.11,2.36,9.41,3.4,19.15,3.03,28.85-.14,3.65-.47,7.31-1.4,10.85-.93,3.59-2.46,6.98-4.04,10.34-1.02,4.32-2.03,8.64-3.05,12.95-2.06,8.76-4.25,17.78-8.92,25.39,4.02.52,7.98-.15,11.45-2.59Z"/>
    <path class="uuid-60db3cdf-d6ec-4080-b9d4-f84b6e1d6ae0" d="m1000.24,1003.14l5.86-1.38c-1.91.23-3.8.6-5.61,1.27-.09.03-.17.08-.25.11Z"/>
    <path class="uuid-ed88107c-ceff-45c6-ba2f-38663728fe8c" d="m1050.97,1426.06c.01-.18.04-.36.11-.53l-.1.09c0,.15,0,.29,0,.44Z"/>
    <path class="uuid-ed88107c-ceff-45c6-ba2f-38663728fe8c" d="m1191.84,1425.51c-2.02-.02-5-.17-8.61-.83-.38.79-2.23,4.41-5.66,4.99-3.83.65-7.09-2.82-8.85-5.06-1.67-2.13-3.13-4.49-3.81-7.11-.71-2.74-.53-5.62-.35-8.44.58-9.07,1.16-18.15,1.74-27.22.08-1.26.16-2.55-.24-3.74-.33-1.01-.97-1.88-1.55-2.78-2.4-3.73-3.69-8.17-3.68-12.61,0-1.36.11-2.77-.44-4.01-.44-.99-1.25-1.75-1.88-2.63-1.7-2.38-1.92-5.35-1.61-8.33-.29.17-.59.33-.87.52-3.99,2.61-6.61,6.82-8.6,11.18.7.25,1.39.49,2.09.72,2.72.91,5.54,1.83,7.69,3.74,4.49,3.97,4.71,10.76,4.74,16.76.08,14.47,1.07,28.94,2.96,43.29.31,2.36.73,4.9,2.4,6.6,2.1,2.13,5.44,2.24,8.42,2.22,5.71-.04,11.41-.09,17.12-.13,1.38-.01,2.91-.08,3.91-1.04,1.08-1.04,1.11-2.74,1.01-4.24-.05-.71-.12-1.41-.19-2.11-2.79.28-4.91.29-5.75.28Z"/>
    <path class="uuid-59499aa6-4a7f-44ab-8dc1-0ff3c69e60df" d="m1006.1,1001.75c2.8-.34,5.66-.38,8.48-.62,3.05-.26,6.23-.88,8.92-2.26l-.36-1.15-17.03,4.02Z"/>
    <path class="uuid-ed88107c-ceff-45c6-ba2f-38663728fe8c" d="m788.52,1287.8c2.09,1.53,4.37,3.12,6.96,3.13,2.34,0,4.45-1.3,6.52-2.41,13.71-7.34,30.2-7.14,44.8-12.48,28.07-10.25,45.97-39.53,74.18-49.38,6.44-2.25,14.73-5.12,14.95-11.94.15-4.52-3.65-8.08-7.14-10.97-7.98-6.62-15.96-13.24-23.94-19.87-2.35-1.95-4.74-3.95-6.46-6.48-1.9-2.82-2.86-6.16-3.75-9.44-2.6-9.64-4.83-19.37-6.69-29.18-3.72-19.7-5.55-41.46,4.99-58.52,10.54-17.06,30.63-25.06,48.32-34.52,17.09-9.14,32.98-20.53,47.11-33.8,3.61-3.39,7.26-6.99,11.87-8.8l-94.52,22.33-1.77,13.02c-15.06-2.29-24.2.93-29.85,4.53-27.32,17.4-28.09,78.58.83,152.88-.62.57-1.18,1.22-1.68,1.89-1.43,1.94-2.49,4.14-4.01,6.01-4.66,5.69-12.9,7.36-17.75,12.89-2.84,3.23-4.24,7.49-6.89,10.88-1.26,1.62-2.81,3.01-4.54,4.13-2.39-.77-4.55-2.19-6.28-4.04,1.37-1.02,1.77-3.17.8-4.58,2.18.73,4.57-1.48,3.95-3.7-.1.22-.21.43-.31.65.32-1.8,1.68-3.2,2.62-4.77,1.02-1.7,1.57-3.71,1.35-5.67-.22-1.97-1.24-3.87-2.87-4.99-1.79-1.23-4.14-1.42-6.26-.95-2.08.46-3.98,1.49-5.8,2.6-.3-.23-.51-.64-.57-1.03-.09-.64-.02-1.36-.42-1.87-.32-.39-.81-.5-1.32-.43-.47-.77-.99-1.51-1.57-2.2-.04-.04-.08-.08-.11-.12.47-.58.8-1.28,1.11-1.97.53-1.21,1.07-2.43,1.6-3.64.39-.88.78-1.85.57-2.79-.3-1.33-1.67-2.09-2.89-2.68-2.16-1.04-4.45-2.11-6.84-1.89-1.54.14-2.97.81-4.4,1.41-2.76,1.16-5.62,2.08-8.54,2.76-.35.08-.7.15-1.05.23-.11-.18-.23-.36-.35-.51-3.15-.57-8.11-1.34-13.49.5-4.33,1.49-8.28,3.9-12.19,6.3-4.5,2.76-9.03,5.54-12.97,9.05-8.04,7.16-13.36,17.31-14.66,28-.87,1.02-1.67,2.1-2.47,3.18-2.71,3.66-5.41,7.32-8.12,10.98-.16.22-.32.44-.48.66,3.35,3.15,7.11,5.93,10.83,8.65,13.19,9.66,26.39,19.31,39.59,28.97Z"/>
    <path class="uuid-ed88107c-ceff-45c6-ba2f-38663728fe8c" d="m1109.37,1420.59c3.19-9.41,11.23-16.19,17.06-24.24,5.83-8.04,9.22-19.9,2.77-27.45-23.77,16.93-41.86,44.83-70.62,49.76-2,.34-4.14.62-5.66,1.96-1.43,1.26-1.92,3.06-1.95,5l.1-.09c.42-1.18,1.91-2.22,3.27-1.94,1.4.29,2.45,1.31,3.32,2.49,2.76,5.3,5.81,10.45,9.14,15.41,3.33,6.01,6.38,12.16,8.73,18.61,2.94,8.07,4.94,16.84,10.65,23.26,6,6.75,15.05,9.73,23.66,12.43,7.32,2.3,16.41,4.12,22.05-.53,5.42-2.41,9.82-7.2,13.18-12.25,2.14-3.22,4-6.62,5.57-10.16-11.24-3.88-22.34-8.81-30.79-17.12-9.19-9.04-14.62-22.94-10.48-35.15Z"/>
    <path class="uuid-ed88107c-ceff-45c6-ba2f-38663728fe8c" d="m925.77,1313.3c1.82,1.58,3.88,2.87,5.68,4.48,5.71,5.11,8.67,13.29,15.56,16.65,2.33,1.13,4.95,1.62,7.18,2.93.15.09.28.19.43.29-1.5.9-2.06,3.04-3.7,3.68-1.92.75-3.8-.98-5.66-1.86-3.51-1.68-7.96-.15-10.45,2.83-2.49,2.98-3.29,7.07-3.12,10.96.29,6.74,3.22,12.92,7.07,18.34,2.98,4.19,9.99,8.92,11.16,13.89,1.28,5.45-1.14,13.65-1.39,19.3-.34,7.92-.39,15.86-.15,23.79.17,5.71.51,11.5,2.36,16.9,1.87,5.48,5.22,10.35,7.2,15.8,1.28,3.51,1.97,7.2,2.65,10.87,1.76,9.46,3.53,18.92,5.29,28.38.96,5.15,1.96,10.4,4.57,14.94,1.98,3.43,4.8,6.29,7.59,9.11,2.65,2.67,5.31,5.36,8.38,7.55,7.23,5.15,16.57,7.18,25.32,5.68,8.75-1.51,16.82-6.49,22.22-13.54.83-1.08,1.59-2.2,2.3-3.36-7.2-.94-14.62-5.73-19.81-11.27-12.17-12.99-19.66-30.29-20.81-48.05-.45-6.9.02-13.91-1.61-20.63-1.97-8.08-6.82-15.1-10.22-22.69-4.94-11.01-6.79-23.12-8.59-35.06-1.24-8.25-2.47-16.83-.03-24.8,1.9-6.22,6.02-12.31,4.62-18.67-1.04-4.73-4.89-8.21-7.88-12.02-8.44-10.74-10.43-25.04-12.12-38.59-1.49-11.93-2.98-23.86-4.47-35.78-3.62,13.46-19.66,18.52-30.02,27.86-4.83,4.36-8.32,9.54-10.94,15.24.66,1.8,1.65,3.5,2.64,5.16,2.5,4.21,5.05,8.5,8.75,11.71Z"/>
    <path class="uuid-ed88107c-ceff-45c6-ba2f-38663728fe8c" d="m1193.08,1323.07c1.89-6.09,4-12.24,4.06-18.62.1-9.87-4.65-19.06-9.28-27.78-7.99-15.05-16.32-30.52-29.56-41.23-7.28-5.89-15.75-10.08-23.58-15.21-30.17-19.77-49.25-52.17-67.27-83.41,2.16,23.61-21.23,45.44-14.98,68.3,4.65,17.04,23.37,25.49,40.07,31.27,16.69,5.79,35.56,13.02,41.84,29.54,2.12,5.59,2.51,11.7,2.16,17.66-.45,7.7-2.07,15.32-4.8,22.53-4.35,11.51-11.62,23.66-7.42,35.22,3.46,9.53,13.44,14.64,23.12,18.09,1.99-4.36,4.61-8.57,8.6-11.18.28-.18.58-.35.87-.52-.31,2.99-.09,5.95,1.61,8.33.63.88,1.44,1.64,1.88,2.63.55,1.24.44,2.66.44,4.01,0,4.44,1.29,8.87,3.68,12.61.57.89,1.22,1.77,1.55,2.78.39,1.2.32,2.49.24,3.74-.58,9.07-1.16,18.15-1.74,27.22-.18,2.82-.36,5.7.35,8.44.68,2.62,2.14,4.98,3.81,7.11,1.76,2.24,5.02,5.71,8.85,5.06,3.44-.59,5.28-4.21,5.66-4.99,3.61.66,6.59.81,8.61.83.84,0,2.96,0,5.75-.28-1.49-14.24-8.12-27.54-10.86-41.64-3.91-20.12.27-40.95,6.36-60.52Z"/>
    <path class="uuid-ed88107c-ceff-45c6-ba2f-38663728fe8c" d="m1007.28,1053.28c-7.99-.85-16.03-1.32-24.06-1.44-7.7-.11-15.66.18-22.64,3.43-5.41,2.52-9.9,6.68-13.9,11.12-20.25,22.43-30.05,53.92-26.11,83.88,9.82-7.45,19.65-14.89,29.47-22.34,4.43-3.36,8.94-6.76,14.16-8.68,4.15-1.53,8.77-2.14,12.26-4.84,8.69-6.73,5.22-21.4,12.02-30.03,5.78-7.34,16.61-7.69,25.93-7.03,3.77.27,7.89.5,10.97-1.7,5.1-3.64,3.99-12.15-.62-16.4s-11.24-5.32-17.47-5.98Z"/>
    <path class="uuid-59499aa6-4a7f-44ab-8dc1-0ff3c69e60df" d="m1050.98,1426.45c0-.13-.01-.26-.02-.4,0,.13,0,.26.02.4Z"/>
    <path class="uuid-59499aa6-4a7f-44ab-8dc1-0ff3c69e60df" d="m1050.97,1426.06c0,.13,0,.26.02.4.05.27.16.54.36.78.62-1.17,1.23-2.33,1.85-3.5l-2.12,1.79c-.06.18-.09.35-.11.53Z"/>
    <g>
      <ellipse class="uuid-e42cecfc-5f1d-4514-8c64-01826fed76fb" cx="1074.55" cy="1093.44" rx="5.3" ry="5.74"/>
      <path class="uuid-e42cecfc-5f1d-4514-8c64-01826fed76fb" d="m903.52,1126.1c-3.17,0-5.74-3.01-5.74-6.73s2.57-6.73,5.74-6.73,5.74,3.01,5.74,6.73-2.57,6.73-5.74,6.73Z"/>
      <path class="uuid-e42cecfc-5f1d-4514-8c64-01826fed76fb" d="m1052.49,1244.08l-5.52-6.14-40.19,6.14,7.67-3.99,9.34-5.52-15.48-1.84-1.53-3.68s11.35-2.15,14.11-2.15,7.98,7.67,7.98,7.67c0,0,3.07-2.76,4.91-4.3,1.84-1.53-2.04-8.59-2.04-8.59l11.24-1.23s-1.84-2.76-2.76-4.91c-.92-2.15,15.65-4.29,15.65-4.29l1.53,10.43-1.53,1.53-.92,4.45s6.14-.15,6.81,0,2.7,11.5,2.7,12.42-11.96,3.99-11.96,3.99Z"/>
      <path class="uuid-e42cecfc-5f1d-4514-8c64-01826fed76fb" d="m985.61,1205.54c-23.17-7.62-31.75-29.04-32.88-32,0,0,0-3.53.66-3.53s7.72,2.21,7.72,2.21l1.99-2.65c-3.46-7.14-6.91-14.27-10.37-21.41-2.57,3.16-5.15,6.33-7.72,9.49-.07-2.43-.15-4.85-.22-7.28,0,0-2.87-5.3-3.09-6.4-.22-1.1-5.08,2.21-5.08,2.21-.74-1.32-1.47-2.65-2.21-3.97,12.92-7.65,34.98-18.52,64.44-22.95,26.61-4,48.78-1.17,62.89,1.77l-2.87,7.5-3.09-4.19c.44,3.9.88,7.8,1.32,11.7-2.43-.59-4.86-1.18-7.28-1.77-.81,2.8-1.62,5.59-2.43,8.39-.18-2.91-.36-5.82-.54-8.74-1.22-.25-2.43-.5-3.65-.75l2.43,23.39,2.87-5.74,1.77-6.84,1.77,7.5c1.32-.51,2.65-1.03,3.97-1.54.15,6.05-.44,17.02-6.4,28.69-2.97,5.83-6.49,10.27-9.49,13.46-14.68,14.38-35.75,19.63-54.51,13.46Zm49.02-85.47c-3.12.12-6.25.24-9.37.36,2.16,12.13,4.33,24.27,6.49,36.4,2.52-1.08,5.05-2.16,7.57-3.24-1.56-11.17-3.12-22.35-4.69-33.52Zm5.41,39.29c-2.77,1.11-5.54,2.22-8.31,3.33,2.36,12.53,0,20.27-2.87,25.15-3.1,5.25-10.32,13.16-10.12,13.34,0,0,.02,0,.02,0,9.86-3.68,15.14-11.17,15.14-11.17,8.06-11.46,6.56-26.94,6.13-30.64Z"/>
      <path class="uuid-e42cecfc-5f1d-4514-8c64-01826fed76fb" d="m738.59,1249.52c2.71-3.66,5.41-7.32,8.12-10.98.8-1.08,1.6-2.16,2.47-3.18,1.3-10.69,6.62-20.84,14.66-28,3.94-3.51,8.47-6.29,12.97-9.05,3.91-2.4,7.85-4.81,12.19-6.3,5.37-1.84,10.34-1.07,13.49-.5.12.15.24.33.35.51.35-.08.7-.15,1.05-.23,2.92-.67,5.78-1.6,8.54-2.76,1.43-.6,2.86-1.27,4.4-1.41,2.38-.22,4.68.85,6.84,1.89,1.23.59,2.59,1.35,2.89,2.68.21.94-.18,1.9-.57,2.79-.53,1.21-1.07,2.43-1.6,3.64-.3.69-.64,1.4-1.11,1.97.04.04.08.08.11.12.58.69,1.1,1.43,1.57,2.2.51-.06,1,.04,1.32.43.41.5.33,1.22.42,1.87.06.39.27.8.57,1.03,1.82-1.11,3.72-2.14,5.8-2.6,2.12-.47,4.47-.28,6.26.95,1.63,1.12,2.65,3.02,2.87,4.99.22,1.97-.33,3.98-1.35,5.67-.94,1.57-2.31,2.97-2.62,4.77.1-.22.21-.43.31-.65.62,2.22-1.77,4.43-3.95,3.7.97,1.42.58,3.56-.8,4.58,1.72,1.84,3.89,3.27,6.28,4.04,1.73-1.11,3.28-2.5,4.54-4.13,2.64-3.39,4.05-7.65,6.89-10.88,4.85-5.53,13.09-7.2,17.75-12.89,1.53-1.86,2.58-4.07,4.01-6.01.5-.67,1.06-1.31,1.68-1.89-28.92-74.3-28.15-135.48-.83-152.88,5.65-3.6,14.79-6.83,29.85-4.53l1.77-13.02,117.4-27.74,3.76,11.93c5.25-2.84,18.49-8.61,34.64-4.5,20.46,5.21,29.38,22.15,30.67,24.72,6.04,10.51,12.2,23.1,17.43,37.74,10.37,29.01,13.26,55.27,13.64,74.91,17.73,7.63,33.97,18.7,47.51,32.46,4.24,4.31,8.28,8.94,13.41,12.15,2.42,1.52,5.22,2.87,6.44,5.44.72,1.51.79,3.26,1.38,4.82.72,1.89,2.17,3.41,3.58,4.86,6.76,6.97,13.58,13.98,21.49,19.61,3.21,2.28,6.7,4.44,8.71,7.82,2.74,4.61,2.37,10.91,6.17,14.7,1.43,1.43,3.33,2.33,4.7,3.82,3.18,3.44,2.65,8.75,2.71,13.43.08,6.83,1.85,13.64,5.12,19.64,1.21,2.22,2.66,4.48,2.63,7-.02,1.95-1.43,3.97-3.17,4.43-.04,2.32-.35,4.61-1.48,6.6-1.74,3.07-5.35,5.46-5.19,8.99.07,1.56.93,3.05.74,4.61-.37,3.1-4.67,4.95-4.3,8.05.12,1.01.74,1.87,1.29,2.73,5.15,8.12,4.04,19.66-2.55,26.66-1.54,1.63-1.74,1.8-2.74,3.56-2.63,4.64-1.43,7.97-2.54,12.66-.87,3.63-1.9,2.94-6.01,10.23-4.72,8.36-7.27,12.89-5.67,16.75,1.71,4.13,6.37,3.08,8.07,7.81,1.61,4.46-1.01,9.66-1.56,10.75-.48.95-1.34,2.44-2.87,4.1-8.51,9.23-24.6,9.31-27.3,9.29-2.02-.02-5-.17-8.61-.83-.38.79-2.23,4.41-5.66,4.99-3.83.65-7.09-2.82-8.85-5.06-1.67-2.13-3.13-4.49-3.81-7.11-.71-2.74-.53-5.62-.35-8.44.58-9.07,1.16-18.15,1.74-27.22.08-1.26.16-2.55-.24-3.74-.33-1.01-.98-1.88-1.55-2.78-2.4-3.73-3.69-8.17-3.68-12.61,0-1.36.11-2.77-.44-4.01-.44-.99-1.25-1.75-1.88-2.63-1.7-2.38-1.92-5.35-1.61-8.33-.29.17-.59.33-.87.52-4.28,2.8-7,7.44-9.03,12.14-.4.92-.78,1.88-.84,2.88-.07,1.34.45,2.62.96,3.86,2.87,6.94,5.73,13.88,8.6,20.82,4.39,10.62,8.84,22.3,5.5,33.29-.88,2.88-2.26,5.58-3.13,8.46-1.77,5.91-1.26,12.21-1.55,18.37-.59,12.4-4.6,24.61-11.47,34.94-3.35,5.04-7.76,9.84-13.18,12.25-5.64,4.65-14.74,2.82-22.05.53-8.61-2.7-17.67-5.68-23.66-12.43-5.71-6.42-7.71-15.19-10.65-23.26-2.35-6.45-5.4-12.6-8.73-18.61-3.33-4.96-6.38-10.11-9.14-15.41-.87-1.19-1.91-2.21-3.32-2.49-1.36-.28-2.84.76-3.27,1.94l-1.05.89c.2,2.04.41,4.07.61,6.11,2.36,9.41,3.4,19.15,3.03,28.85-.14,3.65-.47,7.31-1.4,10.85-.93,3.59-2.46,6.98-4.04,10.34-1.02,4.32-2.03,8.64-3.05,12.95-2.38,10.09-4.91,20.52-11.22,28.74-5.4,7.04-13.47,12.03-22.22,13.54-8.75,1.51-18.09-.53-25.32-5.68-3.07-2.18-5.73-4.87-8.38-7.55-2.79-2.82-5.61-5.68-7.59-9.11-2.62-4.53-3.62-9.79-4.57-14.94-1.76-9.46-3.53-18.92-5.29-28.38-.68-3.67-1.37-7.36-2.65-10.87-1.98-5.44-5.33-10.32-7.2-15.8-1.84-5.4-2.18-11.19-2.36-16.9-.24-7.93-.19-15.86.15-23.79.24-5.64,2.67-13.84,1.38-19.3-1.17-4.97-8.18-9.7-11.16-13.89-3.85-5.42-6.77-11.6-7.07-18.34-.17-3.88.63-7.98,3.12-10.96,2.49-2.98,6.95-4.5,10.45-2.83,1.86.89,3.74,2.61,5.66,1.86,1.64-.64,2.2-2.78,3.7-3.68-.14-.1-.28-.2-.43-.29-2.23-1.32-4.86-1.8-7.18-2.93-6.88-3.36-9.85-11.54-15.56-16.65-1.8-1.61-3.86-2.9-5.68-4.48-3.69-3.21-6.25-7.5-8.75-11.71-1.41-2.39-2.86-4.85-3.29-7.59-.15-.93-.14-1.9,0-2.84-6.6,5.38-13.07,10.99-20.52,15.09-6.04,3.32-12.59,5.58-19.1,7.82-1.12.39-2.3.78-3.48.63-.34-.04-.69-.16-1-.31-.32.69-.73,1.34-1.18,1.95-5.61,7.49-15.55,10.01-24.73,11.83-9.27,1.84-18.78,3.46-28.14,2.17-9.37-1.29-18.71-5.96-23.48-14.12-.9-1.54-1.66-3.23-2.99-4.41-1.25-1.11-2.96-1.73-3.91-3.11-1.26-1.84-.74-4.31-.97-6.52-.27-2.58-1.55-4.77-3.13-6.87-.45,1.34-1.15,2.62-1.84,3.86-.9,1.62-1.81,3.23-2.71,4.85-.32.58-.67,1.19-1.24,1.53-.63.38-1.41.38-2.15.37-2.48-.04-4.96-.09-7.44-.13-5.85-8.99-12.43-17.51-19.64-25.44,1.61-2.29,1.16-5.56-.34-7.93-1.5-2.37-3.85-4.05-6.14-5.67-2.19-1.55-4.39-3.1-6.58-4.65-.12-4.68,2.79-8.82,5.57-12.58Zm49.9-51.98c-10.68,2.63-17.59,9.24-20.28,11.64-3.74,3.33-6.45,7.65-8.91,12.01-2.65,4.71-5.12,10.26-3.29,15.34.76-2.55,4.39-3.69,6.47-2.01-.79,2.75-.68,5.75.31,8.44-3.54-1.44-7.07-2.87-10.61-4.31,5.58,10.88,17.74,16.5,26.19,25.33.95-1.12,2.68-1.26,4.08-.83,1.41.43,2.63,1.31,3.96,1.94,2.82,1.35,6.04,1.57,9.17,1.68,4.07.15,8.15.15,12.23.01.52-1.6.73-3.31.61-4.99-1.94-.03-3.89-.06-5.83-.08-1.46-3.54-2.42-7.29-2.84-11.1,7.57-2.19,15.14-4.39,22.71-6.58,1.18-.34,2.41-.71,3.33-1.53.86-.76,1.36-1.84,1.83-2.89,1.24-2.79,2.37-5.63,3.4-8.51-.26-.19-.52-.39-.77-.59-3.5,3.89-7.24,7.64-11.78,10.22-3.18,1.8-6.66,2.99-10.12,4.16-5.22,1.77-10.73,3.56-16.15,2.55-7.73-1.44-13.28-8.12-20.24-11.79-.93-.49-1.93-.96-2.51-1.83-.49-.73-.61-1.64-.66-2.51-.38-7.41,3.98-14.15,8.38-20.12,3.79-5.16,7.83-10.26,12.99-14.03-.55.11-1.11.23-1.66.37Zm38.63,25.52c.3-1.76.43-3.55.4-5.34-1.91,1.87-3.82,3.74-5.73,5.61-.83.82-1.72,1.66-2.85,1.95-2.03.52-4.01-.91-6.08-1.24-.27-.04-.55-.07-.81.02-.26.09-.47.27-.68.46-1.39,1.24-2.78,2.49-4.16,3.73-.19.17-.4.36-.46.61-.07.27.03.54.08.82.26,1.33-.62,2.64-1.72,3.43-2.38,1.69-5.55,1.59-8.46,1.41-2.52-.15-5.03-.31-7.55-.46-.03,2.15-.56,4.3-1.55,6.21,4.35,1.04,8.83,1.96,13.26,1.35,1.76-.24,3.48-.72,5.18-1.23,1.93-.57,3.86-1.16,5.64-2.09,2.16-1.13,4.04-2.71,6.08-4.05,2.18-1.43,4.55-2.58,6.67-4.09,1.05-.75,2.04-1.61,2.89-2.58-.04-.07-.09-.14-.12-.22-.62-1.32-.28-2.87-.04-4.31Zm-16.47-29.24c-7.38-.05-13.89,4.59-19.55,9.34-3.84,3.22-7.66,6.72-9.83,11.24-.95,1.99-1.57,4.15-2.77,5.99-1.88,2.9-5.23,5.16-5.47,8.61-.22,3.2,2.38,5.82,4.77,7.96.96.86,2.32,1.76,3.41,1.07.39-.25.64-.66.88-1.06,1.34-2.24,2.68-4.48,4.02-6.72,3.86.61,7.72,1.22,11.57,1.83-3.11-2.02-6.52-3.57-10.08-4.6-1.22-.35-2.51-.66-3.5-1.46-1-.79-1.61-2.24-1.02-3.37,6.14,1.9,12.46,3.25,18.84,4.03.65.08,1.32.15,1.95-.05,1.89-.6,2.27-3.18,3.83-4.4-4.06-4.66-9.14-8.42-14.77-10.95,4.33.48,8.69.97,12.84,2.29,4.15,1.32,8.13,3.54,10.85,6.94,2.56-1.02,4.89-2.63,6.74-4.67.56-.62,1.1-1.34,1.15-2.17.11-1.87-2.1-2.88-3.9-3.38-.87-.24-1.78-.48-2.66-.32-1.63.29-2.71,1.79-4.08,2.71-1.37.92-3.81.83-4.07-.8-.14-.85.44-1.64.99-2.31,1.63-2.01,3.59-4.16,6.02-4.66-1.26-1.52-2.09-3.42-2.32-5.39-.64-.36-1.25-.76-1.79-1.25-1.26-1.13-2.19-2.77-2.03-4.46Zm16.68,12.46c.1.07.22.11.33.13-.1-.06-.18-.15-.33-.13Zm3.73,16.03c1.53-.7,1.4-2.85,1.71-4.51.07-.39.19-.79.44-1.11.5-.62,1.37-.74,2.08-1.11,1.52-.8,2.11-2.76,1.86-4.46-.09-.63-.29-1.27-.72-1.74-1.12-1.22-3.12-.73-4.61-.02-1.14.54-2.34,1.3-2.9,2.37.29.85.54,1.7.68,2.59.25,1.62.13,3.28.28,4.92.11,1.11.36,2.19.74,3.23.15-.05.31-.1.45-.16Zm20.26,4.22c6.51,1.59,12.88,3.76,18.98,6.53,1.75-1.94,3.36-3.99,4.87-6.12-.67.57-1.59.92-2.48.91-1.68-.02-3.2-.92-4.65-1.74-3.76-2.12-7.68-3.94-11.72-5.47-1.81,1.86-3.51,3.81-5,5.89Zm31.47-32.28c2.24-2.17,4.06-4.77,5.33-7.62.58-3.35,2.03-8.2,5.76-12.8,3.58-4.42,7.7-6.7,10.08-7.78l21.41-8.17s-2.9-13.41-3.69-19.2c-1.05-.29-2.1-.59-3.15-.88.02-5.79.37-12.44,1.33-19.71l-1.33-5.67v-6.18l-22.29-1.99-6.84-8.39,1.32-7.06,5.52,9.05,9.49-.66-11.92-12.36,27.14,19.2,4.41-23.83-4.85-11.25-13.9,4.41-1.1-11.25-21.41,8.83,3.97,12.25-1.54,12.25,6.62,12.36v13.9l6.18,11.92.66,8.61,17.43-2.87,3.75,2.21s1.99,10.81,1.99,11.48-9.05-4.19-9.05-4.19l-10.15,1.99,1.77,10.59-1.77,4.63c-13.77-9.72-27.53-19.44-41.3-29.15,3.99,17.79,10.66,37.18,20.13,57.36Zm178.29-56.62c1.83-.45,3.66-.89,5.5-1.34-.21-.53-.42-1.05-.63-1.58l21.63-9.93c-.96-10.59-1.91-21.19-2.87-31.78-4.41-18.98-8.83-37.96-13.24-56.94l-13.02-1.1v15.23h-1.54l-4.63-15.23-31.78,16.77c-10.2-2.09-38.32-6.36-65.1,9.27-7.59,4.43-13.53,9.56-18.1,14.34-2.91,5.85-5.81,12.78-8.17,20.74-4.76,16.1-5.55,30.52-5.16,41.34.81.8,1.71,1.79,2.5,2.72,3.54-3.75,9.28-9.29,17.22-14.71.64-.44,1.29-.85,1.93-1.27l-.12.07-3.2-45.98,10.16,41.81-.12.07c28.52-15.66,58.4-14.87,72.85-13.65l-1.4-45.35,9.91,46.26c6.94.92,16.13,2.66,26.72,6.13-.79-6.98-3.29-20.71-12.8-34.87-8.89-13.24-19.71-20.57-25.71-24.05,1.29-.44,2.57-.88,3.86-1.32,6.25,3.62,16.43,10.61,25.16,22.73,11.31,15.72,14,31.49,14.79,39.06h12.14l.66,2.21-13.02,2.64v11.48h-2.43l-1.32-12.36c-16.11-5.01-29.8-6.57-39.28-7.06-15.68-.81-50.9-2.62-79.67,19.64-6.46,5-11.04,10.01-13.9,13.46-.07-.08-.15-.16-.22-.23v10.88l12.45-4.3c.82,3.07,1.64,6.14,2.45,9.2,6.97,30.12,31.71,51.04,57.06,51.54,32.64.64,64.81-32.61,60.44-74.55Zm39.58-3.07c.81.08,1.72.24,2.71.47l-12.39-15.53.58,8.37-8.83,3.09-15.45,7.06c-.23-.58-.46-1.15-.69-1.73-.61,8.85-1.22,17.69-1.83,26.54,8.26-18.36,22.65-29.65,35.91-28.27Zm1.53-73.67l-5.79-5.41c-6.91-4.71-13.83-9.42-20.74-14.12,4.49,17.07,8.97,34.13,13.46,51.2l1.31,18.98,11.29,16.13,4.29-54.3c-.22-.79-.44-1.59-.66-2.35-1.03-3.58-2.07-6.94-3.15-10.13Zm-227.76,142.96c-.7.64-1.39,1.27-2.09,1.91,2.58,1.09,5.23,2.03,7.93,2.79.41.11.84.23,1.16.52.77.69.51,1.94.15,2.9-1.2,3.17-3,6.11-5.27,8.63-4.26-1.62-8.53-3.24-12.79-4.86-.52-.2-1.15-.33-1.73-.33-.54.5-1.08,1-1.62,1.5.16.74.98,1.33,1.73,1.7,4.17,2.07,8.53,3.75,13.01,5,.32.09.66.19.9.43.24.24.33.59.35.93,0,.26-.04.5-.11.74,3.52-5.22,6.33-10.92,8.26-16.91-2.77-1.42-5.54-2.83-8.32-4.25-.5-.26-1.01-.5-1.54-.69Zm2.66-154.57c-17.32,12.57-23.04,42.21-15.96,80.15,11.71,8.6,23.41,17.2,35.12,25.8l-1.1-21.41-4.85-10.15v-10.59l-6.18-13.02.22-11.03-20.52,35.75v-30.45l8.83-10.37v16.55l6.84-13.68-2.65-13.9,5.28-9.49,26.35-6.58-3.59-14.67c-14.12-.51-22.62,3.37-27.78,7.11Zm209.81-17.46c-6.64-8.34-15.61-19.61-30.88-22.24-13.73-2.37-25.11,3.53-29.57,6.18-.53-1.64-1.05-3.29-1.58-4.93h0l-3.72-9.64-109.68,26.85.44,7.8-2.65.22-1.1-6.62-1.77,7.94,4.19,14.12,1.72-3.62.92-2.56,107.03-24.5,3.53,1.1-108.58,26.26-1.31,1.37-1.55,4.81,114.97-27.36-1.77-8.17,2.65-.44,3.53,11.03-121.37,28.55v9.19l15.01-5.3s1.5,14.57,2.48,23.63c2.06-5.6,4.3-10.68,6.56-15.25,5.31-5.75,16.69-16.49,34.65-22.51,23.72-7.95,44.09-2.71,51.42-.44,13.57-7.69,27.14-15.38,40.72-23.07,12.05,8.16,24.1,16.32,36.15,24.49-2.81-5.99-6.14-11.48-10.46-16.91Zm22.66,55.52l-4.9,48.04c1.38.42,2.88,1.03,4.48,1.9.29.09.58.17.86.27,2.48.79,4.93,1.67,7.36,2.59-1.43-20.68-4.48-38.4-7.8-52.8Zm55.56,266.37c3.71-.16,5.51-4.76,8.86-6.35,1.99-.95,4.32-.74,6.5-.46,5.73.71,11.42,1.71,17.05,2.98,2.32.52,5.22,1.91,4.83,4.26-8.5-.55-17-1.1-25.49-1.66-1.55-.1-3.26-.15-4.48.82-1.22.98-1.56,2.71-2.65,3.83-.72.75-1.77,1.24-2.17,2.2-.29.69-.16,1.48-.04,2.22.54,3.16,1.09,6.33,1.63,9.49,13.79-3.6,28.93-1.69,41.39,5.21-13.34-3.4-28.08-6.67-40.34-.4.5,2.96,1,5.91,1.5,8.87,9.68-1.14,19.35-2.29,29.03-3.43,2.23-.26,5.5.54,5,2.72-11.08.07-22.14,2.24-32.42,6.35-.75.3-1.53.65-1.95,1.33-.48.79-.33,1.79-.21,2.71.53,4.05.17,8.21-1.03,12.11-.56,1.8-1.29,3.56-1.52,5.43-.75,6.2,5.46,12.22,11.63,11.27-.71-4.7-1.42-9.39-2.14-14.09.6-.13,1.5-.22,2.32.21,1.8.96,1.08,3.9,3.15,8.56.39.89.6,1.34.94,1.65,2.34,2.21,7.82-.19,9.82-1.15.37.35.97.86,1.8,1.31,4.83,2.64,12.38.74,14.25-3.14.53-1.1.32-1.76,1.14-2.59,1.62-1.63,3.82-.44,5.56-1.54,2.04-1.29,2.7-5.24,1.74-8.11-2.11-6.32-12.27-8.08-11.75-10.1.16-.61,1.09-.46,2.32-1.66,1.45-1.41,1.78-3.19,1.99-4.14,1.23-5.72,5-15.43,7.33-17.37.19-.16.93-.74,1-1.6.05-.57-.28-1.1-.61-1.56-3.96-5.45-10.68-8.05-17.13-9.99,6.89-1.02,14.14.65,19.9,4.57,2.02-2.15,2.52-5.59,1.19-8.22-.37-.74-.88-1.43-1.06-2.24-.45-2.07,1.4-3.92,3.26-4.92,1.86-1,4.04-1.73,5.21-3.5,1.8-2.73-.48-7.06-3.75-7.11,1.58-1.78,3.46-3.29,5.55-4.43.45-3.06-.92-6.18-3.03-8.45-2.11-2.26-4.89-3.79-7.7-5.09-7.27-3.36-15.12-5.47-23.1-6.2,2.27-2.24,5.9-2.22,9.06-1.77,5.12.72,10.13,2.14,14.86,4.21,1.31.57,2.64,1.21,4.07,1.27,1.43.06,3-.64,3.48-1.98.28-.8.15-1.68.34-2.5.2-.82,1.01-1.64,1.79-1.32-.83-2.34-1.65-4.67-2.48-7.01,5.21-2.25,9.14-7.11,10.51-12.59-.84-1.38-1.48-3.06-2.68-4.01-8.22.6-16.56.88-24.44-1.43-4.69-1.37-9.74-4.55-9.96-9.43,6.51,1.32,12.88,3.35,18.95,6.05,3.99,1.77,8.68,3.82,12.46,1.63,1.18-.69,2.19-1.76,3.48-2.16-.02-.09-.04-.19-.06-.28-2-7.69-3.99-15.37-5.99-23.06-.69-2.66-1.41-5.37-2.93-7.66-2.83-4.23-8.35-6.91-9.16-11.94-.23-1.42-.03-2.9-.36-4.31-1.01-4.4-6.21-6.04-10.05-8.41-8.11-5-11.77-15.43-20.09-20.08-1.23-.69-2.67-1.38-3.08-2.73-.32-1.06.12-2.21.02-3.31-.45-5.22-10.79-4.57-11.1-9.8-.96.79-1.93,1.58-2.89,2.37-7.57-11.8-17.26-22.23-28.47-30.65-1.02-.77-2.15-1.55-3.43-1.55-1.02,0-1.96.51-2.85,1.03-9.41,5.49-17.6,13.05-23.81,22,4.77-9.8,11.06-18.86,18.57-26.76-2.82-2.68-5.99-4.99-9.4-6.84-3.39-1.85-7.59-3.23-11.03-1.45-1.62.84-2.83,2.28-3.94,3.73-7.43,9.71-12.17,21.47-13.53,33.62-.88-12.93,3.11-26.13,11.01-36.41-3.87-2.6-8.71-3.71-13.33-3.06-10.5,13.33-16.69,30-17.44,46.95-1.45-11.91-.06-24.16,4.03-35.45,1.54-4.26,3.52-8.47,6.74-11.66.45-.45.92-.87,1.41-1.27-16.67,9.75-22.13,28.86-22.89,31.69-.68,1.75-1.44,3.45-2.26,5.11,1.91-.13,3.9.42,5.47,1.53,2.62,1.85,4.12,5.03,4.38,8.22.21,2.54-.25,5.28,1.02,7.48.93,1.62,2.62,2.62,4.22,3.57,11.48,6.79,22.4,14.54,32.59,23.14.55.47,1.12.95,1.47,1.58.43.76.51,1.66.83,2.47.76,1.98,2.71,3.2,4.58,4.19,5,2.66,10.3,4.75,15.76,6.21.8-6.4,6.5-10.89,11.75-14.64,2.16-1.54,4.32-3.09,6.48-4.63-.96-1.22-1.91-2.44-2.87-3.67-6.07,7.81-16.93,9.62-26.74,10.86,9.38-2.06,18.02-7.31,24.17-14.68.47-.56.95-1.25.79-1.96-.12-.51-.54-.88-.95-1.22-3.57-2.98-7.13-5.97-10.7-8.95-4.86,6.84-11.59,12.09-18.22,17.24-.99.77-2.02,1.56-3.24,1.82-1.22.26-2.69-.16-3.23-1.29,4.94-9.96,15.94-15.43,22.45-24.45-4.81-4.52-10.11-8.51-15.79-11.87.57-1.37,2.26-2,3.73-1.79,1.47.2,2.76,1.05,3.98,1.9,11.68,8.2,21.02,19.24,30.22,30.14.7-2.18,3.51-2.59,5.71-3.22,3.37-.96,6.19-3.21,8.92-5.41-1.6-.65-3.21-1.3-4.81-1.95-1.42,1.43-2.93,2.91-4.87,3.44-1.94.53-4.41-.31-4.94-2.26,3.26-2.46,6.51-4.91,9.77-7.37.89-.67,1.84-1.37,2.96-1.51,1.11-.13,2.4.54,2.52,1.65-1.51,1.41-2.19,3.65-1.69,5.66,1.32-.26,2.73-.52,4-.08,1.27.45,2.3,1.89,1.81,3.14-.26.65-.84,1.1-1.4,1.52-4.38,3.28-8.76,6.57-13.14,9.85-7.26,5.44-14.7,11.08-19.39,18.85-1.53,2.53-2.92,5.42-5.57,6.71-2.78,1.35-6.09.51-8.99-.53-4.82-1.72-9.45-3.94-13.81-6.61-.93-.57-1.89-1.21-2.33-2.2-.56-1.24-.17-2.68-.33-4.03-.31-2.64-2.66-4.58-5.05-5.74-2.4-1.16-5.05-1.88-7.12-3.56-2.87,3.62-4.22,8.41-3.66,12.99,1.46.12,2.94.04,4.38-.22-.01-2.29.84-4.57,2.35-6.28,4.26,4.88,4.75,12.35,9.37,16.89,2.67,2.63,6.43,3.92,10.16,4.3,1.07.11,2.19.15,3.19-.25,1.01-.4,1.8-1.22,2.76-1.73.96-.52,2.3-.67,3.02.15-1.35.53-1.9,2.25-1.59,3.67.31,1.42,1.27,2.59,2.19,3.71,1.48,1.8,2.97,3.59,4.45,5.39,1.17,1.42,2.44,2.9,4.19,3.47,1.75.56,4.08-.27,4.4-2.08-2.83-3.8-5.28-7.88-7.31-12.16-.37-.78-.73-1.67-.42-2.48.23-.58.76-.98,1.27-1.33,2.09-1.43,4.34-2.63,6.69-3.58-.67,3.38-1.34,6.75-2,10.13-.19.94-.37,1.95.01,2.84.37.86,1.19,1.42,1.98,1.93,1.7,1.1,3.42,2.23,5.13,3.38.5-4.5,1.53-8.93,3.14-13.16.93-2.46,2.41-5.15,5-5.64,1.29-.24,2.72.12,3.89-.48.64-.33,1.11-.91,1.57-1.46,5.13-6.2,11.23-11.59,18.01-15.93.87-.56,1.85-1.12,2.88-.99,1.52.2,2.47,1.96,2.18,3.47-.28,1.5-1.48,2.69-2.82,3.43s-2.83,1.15-4.25,1.73c-2.66,1.09-5.04,2.82-6.9,5.01-1.41,1.67-2.52,3.59-4.09,5.12-2.17,2.11-5.05,3.31-7.55,5-3.42,2.31-6.16,5.61-7.81,9.39-.27.63-.52,1.3-.48,1.98.04.51.24,1,.45,1.47,1,2.22,2.29,4.31,3.8,6.22,1.19.98,2.33,1.99,3.42,3.05.16.01.33,0,.49-.06.43-.16.71-.57.97-.95,9-13.51,22.94-23.65,38.56-28.06.76.7-.14,1.9-.99,2.49-6.04,4.26-12.4,8.06-19.01,11.38-2.87,1.44-6.06,3.08-7.13,6.11-.55,1.55-.45,3.27-1.02,4.81-.85,2.28-3,3.76-4.75,5.45-1.18,1.14-2.23,2.65-2.52,4.21.83,1.18,1.57,2.42,2.21,3.73.21.23.41.48.58.74.08.13.13.27.2.41,2.56,1.22,5.61,1.07,8.48.86,6.33-.46,12.66-.93,18.99-1.39.59-.04,1.21-.1,1.71-.41.53-.34.84-.92,1.18-1.45,1.52-2.41,4.02-4.17,6.8-4.81,2.06-.47,4.58-.54,5.68-2.35-.89-1.05-2.45-1.3-3.8-1.01-1.35.29-2.55,1.02-3.75,1.69-5.98,3.32-12.73,5.24-19.56,5.55,7.43-3.63,14.92-7.29,22.92-9.38,1.71-.45,3.55-.82,5.21-.21,1.66.6,2.95,2.55,2.22,4.16-.3.66-.87,1.15-1.46,1.57-2.62,1.82-5.86,2.43-8.78,3.71-2.92,1.28-5.78,3.71-5.86,6.89-.03,1.15.04,2.73-1.08,2.99-.35.08-.72-.02-1.07-.12-6.84-1.89-14.09-1.33-21.16-.76-1.12.09-2.59.54-2.54,1.66-1.02-.27-2.04-.53-3.06-.8-.09,5.23-1.7,10.65-5.88,13.67,1.95-.21,3.83,1.06,4.88,2.72s1.43,3.65,1.72,5.59c1.32,8.79,1.28,17.88-1.18,26.42,4.3-5.93,11.18-9.91,18.46-10.68,5.34-.57,10.71.51,15.94,1.71,4.97,1.13,9.91,2.37,14.82,3.71,3.34.91,7.34,2.69,7.45,6.15-3.28-.71-6.57-1.41-9.85-2.12-12.26-2.63-25.28-5.23-37.11-1.05-1.67.59-3.32,1.33-4.6,2.55-1.01.96-1.74,2.17-2.37,3.4-3.03,5.93-4.02,12.87-2.76,19.4Zm-25.41-88.84c-.97.13-1.95.26-2.91.33.95,2.83,1.28,6.1,1.33,9.04.15,8.54.01,17.2-1.2,25.64.51-.95,1-1.92,1.39-2.93,2.8-7.18,1.54-15.21.52-22.85-.41-3.09-.57-6.65.86-9.23Zm17.94,78.48s.01-.05.02-.07c2.02-9.6,4.04-19.21,6.05-28.81-3.61-2.43-8.04-3.24-11.97-5.08-3.94-1.84-7.69-5.46-7.35-9.79,5.97,1.76,11.6,4.64,16.52,8.45.79-3.7,1.17-8.46-2.08-10.4-2.24-1.34-6.14-1.57-5.95-4.17.09-1.3,1.35-2.14,2.38-2.93,3.73-2.85,5.82-7.6,5.73-12.28-1.29-4.76-4.69-8.77-8.97-11.2.4,1.11.91,2.2,1.36,3.28.97,2.33,1.6,5.15.21,7.25-1.02,1.55-2.93,2.33-4.01,3.84-1.51,2.11-.79,5.46,1.45,6.77.08.04.16.08.25.1-2.03,3.77-4.29,7.18-8.01,9.31-2.02,1.16-4.61,3.32-3.25,5.21.47.65,1.29.94,2.03,1.27,4.36,1.93,6.97,8.38,3.4,11.53,1.87-.02,3.74.66,5.16,1.87-4.46,2.76-8.92,5.53-13.39,8.29,2.65,1.12,5.66,1.37,8.47.71,1.85,2.47,3.79,5.16,3.84,8.24.03,1.73-.55,3.41-1.12,5.05-1.55,4.43-3.1,8.86-4.65,13.29-6.91-7.41-11.77-16.72-13.89-26.62-.09-.42-.17-.85-.25-1.28-.24.84-.45,1.68-.61,2.54-1.99,10.93,4.29,22.02,12.94,28.99,5.24-4.45,10.47-8.9,15.71-13.35Zm-.3,62.84c-.33.57-.66,1.14-.99,1.71-1.64-10.26-4.17-20.38-7.56-30.19-1.44-4.18-3.05-8.32-5.19-12.19-.04-.07-.09-.14-.13-.22-4.09,10.55-9.12,20.75-15.02,30.4,2.83,3.59,7.43,5.44,11.98,5.91,4.55.47,9.13-.28,13.64-1.02-6.5,6.1-16.98,7.47-24.83,3.25.59,2.83,3.44,4.49,5.97,5.89,5.88,3.27,11.47,7.05,16.69,11.3,1.46,1.19,2.92,2.46,3.75,4.15.21.44.37.88.49,1.34.06-.32.13-.64.19-.96,1.19-6.31,2.6-13.14,1.03-19.37Zm-230.36-102.53c.93,2.05,1.8,4.17,3.24,5.9,2.25,2.7,5.76,4.29,7.46,7.36.62,1.12.97,2.39,1.65,3.47,1.28,2.01,3.54,3.12,5.64,4.25,4.12,2.23,7.99,4.92,11.51,8,1.77,1.55,3.54,3.34,4.06,5.64.45,1.96-.42,4.3-2.12,5.17-1.28,1.65-3.63,2.46-5.8,2.38-2.7-.11-5.23-1.23-7.84-1.96-.71-.2-1.49-.36-2.15-.02-.72.36-1.04,1.2-1.31,1.96-2.91,8.35-5.41,18.8.82,25.08,2.37,2.39,5.66,3.69,8.08,6.04,4,3.89,4.93,9.92,5.04,15.5.18,9.68-1.46,19.3-1.85,28.97-.38,9.67.62,19.77,5.59,28.08,1.34,2.24,2.97,4.34,3.98,6.75,1.18,2.84,1.45,5.95,1.79,9.01,1.2,10.91,3.37,21.69,5.54,32.45,1.11,5.49,2.3,11.17,5.56,15.72,2.16,3.01,5.11,5.35,8.04,7.63,6.04,4.72,12.31,9.48,19.66,11.67,7.35,2.19,16.11,1.31,21.5-4.15,2.45-2.48,4.02-5.68,5.55-8.82,2.9-5.96,5.8-11.92,8.7-17.87-4.81,3.55-10.62,5.71-16.58,6.16,7.51-4.4,13.57-10.98,17.84-18.59-.18.04-.36.08-.53.12-14.92,3.25-30.96,1.11-44.5-5.95,15.93,4.45,33.4,3.21,48.54-3.45.26-.11.52-.24.78-.36,2.15-6.39,3.19-13.1,3.31-19.85-22.8,5.17-46.95,4.23-69.26-2.75,14.27,1.71,28.71.1,42.95-1.79,7.07-.94,14.14-1.95,21.06-3.66,1.64-.4,3.32-.89,4.78-1.7-.23-2.07-.53-4.12-.9-6.16-.15-.84-.32-1.67-.49-2.51-10.33.29-20.67.23-30.99-.22,5.69-2.34,11.99-2.5,18.1-3.21,4.04-.47,8.19-1.27,11.83-2.98-.26-2.43-.28-4.85.26-7.24,1.19-5.31,6.24-10.28,11.55-9.07,2.24.51,4.11,2.01,5.66,3.74,17.15,2.2,35.09-2.35,49.1-12.49-4.55,7.52-12.34,12.68-20.67,15.48-7.71,2.59-15.91,3.31-24.06,3.45,1.68,3.19,2.93,6.62,4.03,10.14,15.71,2.22,32.14-.89,45.93-8.75-1.74,2.82-4.69,4.63-7.64,6.14-11.29,5.77-24.12,8.48-36.78,7.79.46,1.63.91,3.27,1.38,4.9,0,0,.01.01.02.02,1.39,1.2,3.21,1.76,5,2.16,13.14,2.94,26.75-.84,39.68-4.6-5.49,4.05-12.5,5.44-19.3,5.91-6.81.47-13.68.12-20.42,1.19-.94.15-1.95.32-2.81-.08-.39-.18-.71-.46-1-.77.5,1.55,1.03,3.08,1.63,4.58,8.65,21.81,31.7,36.99,55.13,36.51,6.14-4.71,9.57-12.97,12.08-20.62,4.1-12.49,7.53-25.19,10.3-38.04-6.46-12-17.67-20.88-28.76-28.96-1.47-1.07-3.04-2.28-3.48-4.04-.33-1.33.06-2.71.51-4,4.38-12.68,14.39-23.07,17.35-36.15.74.32,1.48.63,2.21.95-4.25-6.81-9.84-12.76-14.07-19.6-4.72-7.63-7.66-17.31-4.11-25.56.91-2.12,2.21-4.05,3.38-6.04,8.4-14.29,9.87-32.36,4.29-47.96-2.88-2.38-2.3-7.31-5.01-9.91-2.77-2.65-7.26-1.51-11.06-2.03-2.92-.4-5.46-1.82-7.92-3.48.63,1.54,1.28,3.05,2.62,3.97,1.99,1.37,4.67.86,7.07,1.17,6.84.89,10.89,8.83,10.12,15.69-.77,6.86-4.93,12.79-8.86,18.46-1.12,1.61-2.26,3.32-2.45,5.27-.14,1.39.21,2.8,0,4.17-.21,1.38-1.32,2.82-2.7,2.62-1.16-3.32-2.32-6.65-3.47-9.97,8.2-4.56,13.15-14.34,11.98-23.65-.21-1.64-.65-3.36-1.87-4.47-.73-.66-1.67-1.03-2.58-1.39-3.85-1.5-7.69-3-11.54-4.5,2.88,3.34,3.52,8.19,2.58,12.49-.94,4.31-3.29,8.17-5.86,11.75-2.65,3.69-6.11,7.45-10.64,7.78,1.35,3.01,2.3,6.21,2.84,9.47.38-.56.75-1.12,1.08-1.71,2.9,2.38,5.79,4.75,8.69,7.13.85.69,1.69,1.42,2.44,2.21l10.68-6.14,3.53,11.03-10.73,8.91c.05,1.06.09,2.12.09,3.17-3.47,1.29-6.53,3.63-8.69,6.63-1.18-2.5-2.36-5.01-3.54-7.51-5.14,3.03-10.27,6.06-15.41,9.09,1.68.98,2.27,3.23,1.89,5.14-.38,1.91-1.51,3.57-2.62,5.17-2.82,4.07-5.92,8.36-10.56,10.08-.95-5.19-2.62-10.25-4.94-14.99.61-1.28,1.22-2.57,1.83-3.85-2.72,1.99-5.97,3.25-9.33,3.61-.1-2.21-.2-4.43-.3-6.64,5.27-.26,10.47-1.66,15.16-4.07.04-2.2-.64-4.41-1.91-6.21,5.98-1.28,11.67-3.92,16.52-7.66-.22-2.08-.98-4.1-2.18-5.82,2.15-1.18,4.11-2.7,5.81-4.47-.85-.48-1.6-1.2-2.11-2.03-1.07-1.71-1.38-3.77-1.67-5.77-.47-3.24-.94-6.47-1.41-9.71,4.71.14,9.69-1.13,12.95-4.54,3.53-3.69,4.43-9.3,3.56-14.34-.86-5.03-3.26-9.66-5.62-14.18,1.52.04,3.05.09,4.57.13-1.31-1.61-1.81-3.83-1.34-5.85-1.01-.6-2.04-1.14-3.13-1.57-3.36-1.31-7.15-1.54-10.21-3.43-3.48-2.14-5.43-6.05-8.4-8.86-3.78-3.58-8.96-5.19-13.47-7.79-4.51-2.6-8.73-7.12-8.12-12.29,9.1,7.98,18.9,16.31,30.87,18.13,1.69-3.61,3.42-7.6,2.37-11.45-1.3-4.77-6.37-7.42-11.11-8.8,1.38,3.01-2.08,6.52-5.38,6.22-3.3-.3-5.86-3.07-7.38-6.02-3.42-6.62-3.17-14.6-1.36-21.83-1.89-1.01-3.78-2.02-5.66-3.03-13.31,24.51-40.9,38.43-68.59,33.89-29.43-4.82-52.22-29.4-54.91-59.52-3.37,2.72-6.75,5.45-10.12,8.17l-3.68,13.61c-.51-2.66-1.02-5.32-1.53-7.98-.39-2.55-2.4-4.55-4.91-4.91-2.63-.37-5.23,1.15-6.22,3.68-2.94.88-7.2,2.54-11.57,5.83-2.42,1.82-4.38,3.77-5.97,5.66,1.83-.05,3.9.56,5.72.1,1.98-.5,3.38-2.2,4.8-3.67,1.42-1.47,3.3-2.87,5.31-2.52s3.13,3.55,1.3,4.45c9.74.74,18.88,5.45,26.17,11.95,7.29,6.5,12.86,14.7,17.58,23.25,3.79,6.87,7.12,14.16,8.21,21.93,1.09,7.78-.28,16.16-5.12,22.35-3.75,4.8-9.21,7.9-14.41,11.08-8.61,5.25-16.89,11.03-24.82,17.27.02.03.04.06.06.08l26.06-5.19,19.42,42.83-.84,7.02-20.57-43.03-19.9,4.29c1.94,3.05,3.68,6.23,5.18,9.52Zm182.7,7.1c.18,1.01.33,2.02.46,3.04l7.65-4.54-2.22-6.18-6.7,4.62c.39.97.62,2.02.8,3.05Zm-321.99-17.53c2.74,1.63,5.84,2.56,8.94,3.31,9.39,2.27,19.4,2.99,28.63.12,9.22-2.87,17.53-9.78,20.33-19.02-2.9-1.16-6.08-1.58-9.18-1.21.46-3.11.68-6.88-1.83-8.78-1.52-1.15-3.96-1.58-4.29-3.46-.16-.92.32-1.82.76-2.65,3.9-7.35,5.9-15.71,5.74-24.03,5.06,3.84,8.57,9.67,9.58,15.94,1.03-.66,2.47-.22,3.31.66.84.89,1.21,2.11,1.5,3.29,2.27,9.29,1.2,19.37-2.97,27.98-1.48,3.05-3.35,5.94-5.74,8.33-2.63,2.62-5.84,4.6-9.19,6.21-12.57,6.03-27.79,6.87-40.49,1.11-1.39,3.35,1.86,7.28,5.47,7.57,1.02.08,2.06-.04,3.06.18s2.01.91,2.15,1.92c.15,1.01-1.06,2.07-1.92,1.51.15,3.9,4.42,6.14,8.14,7.32,10.11,3.2,21.01,4.57,31.35,2.23,6.94-1.57,13.4-4.75,19.78-7.9.66-.33,1.33-.66,1.83-1.2.6-.66.88-1.54,1.11-2.41,1.43-5.49,1.35-11.36-.21-16.82,2.96,4.9,5.1,10.3,6.29,15.9.19.92.36,1.86.34,2.79,2.9-.66,5.77-1.82,6.83-4.48.74-1.86.36-3.96-.16-5.89-1.64-6.1-4.49-11.86-8.35-16.86,8.68,3.08,15.76,10.38,18.55,19.16,4.73-3.34,9.46-6.69,14.19-10.03,1.49-1.05,3.04-2.17,3.81-3.82.65-1.4.66-3,.63-4.54-.15-7.36-.94-14.7-2.36-21.92,5.75,5.92,9.82,13.44,11.65,21.48,4.88-3.23,9.63-6.66,14.24-10.27,1.42-1.11,2.88-2.31,3.6-3.96.82-1.88.57-4.03.2-6.05-1.19-6.57-3.42-12.95-6.57-18.83,7.88,2.54,13.65,10.54,13.58,18.82,4.42-2.34,7.03-5.18,8.56-7.31,6.8-9.45,5.97-23.78-1.49-36.82-25.6,17.89-51.2,35.77-76.8,53.66-3.02,1.03-4.73,1.24-5.12.61-1.8-2.87,24.55-23.42,79.06-61.65-3.14-5.17-8.53-12.68-17.2-19.46-8.06-6.3-19.27-12.23-20.75-10.4-.48.6.19,1.87,2.87,6.05,3.73,5.81,7.44,11.14,11.03,15.99-5.41-6.09-10.81-12.19-16.22-18.28-.3-.34-.62-.69-1.06-.83-.81-.25-1.62.34-2.27.89-2.31,1.98-4.63,3.97-6.94,5.95,7.49,6.29,14.3,13.39,20.27,21.14,1.98,2.57,3.94,5.37,4.34,8.6-2.69-6.1-7.2-11.25-12.33-15.52-5.13-4.26-10.87-7.7-16.6-11.11-.74-.44-1.52-.89-2.38-.86-.1,1.6-1.54,3-3.14,3.06-1.36.05-2.41-.79-2.83-2.01l-.33.22c-.06.37-.17.73-.34,1.05-.49.95-1.3,1.7-2.09,2.42-.28.26-.57.52-.85.78,5.73,2.66,11.46,5.32,17.18,7.99-4.52,1.51-8.22,4.9-10.92,8.83-2.69,3.93-4.47,8.4-6.12,12.87-1.06,2.88-2.1,5.83-2.24,8.9-8.29-4.83-17.93-7.26-27.51-7-.17.41-.34.83-.5,1.25-.25.68-.47,1.4-.37,2.11.09.64.42,1.21.74,1.76,2.83,4.82,5.67,9.64,8.5,14.46-1.52-2.56-6.43.31-8.2-2.09-.41-.55-.51-1.26-.63-1.94-.82-4.7-3.1-9.2-6.05-13.05-1.17.41-2.46.04-3.62-.4-.42-.16-.81-.36-1.22-.54-3.54,5.15-3.81,12.47-7.64,17.61-1.19,1.6-2.7,2.93-4.19,4.26-5.57,4.94-11.14,9.87-16.7,14.81-.74.65-1.5,1.32-2.44,1.64-1.09.37-2.28.21-3.42.04-6.43-.95-12.9-2.04-18.97-4.37s-11.78-6-15.59-11.26c2.5,9.51,6.02,18.76,10.46,27.54,3.11,3.08,5.99,6.48,9.74,8.71Zm-39.62-25.38c2.39,2.75,3.86,6.53,2.99,10.07,1.02-.23,2.05-.47,3.07-.7.67-1.39,2.38-2.02,3.92-1.87,1.54.14,2.94.9,4.29,1.64-.04,1.71-.09,3.42-.13,5.13-3.26-.46-6.58-.46-9.84,0,7.42,5.25,13.03,13,15.72,21.68,4.36-3.24,7.66-7.84,9.42-12.97-1.48-1.93-2.77-3.94-3.3-6.26-.06-.28-.09-.57-.04-.84-.94-1.08-1.78-2.29-2.52-3.5-3.92-6.38-6.69-13.46-8.12-20.81-.19-.96-.37-1.96-.96-2.74-.55-.73-1.4-1.16-2.19-1.61-5.11-2.91-9.23-7.54-11.51-12.97-2.39,6.82-5.62,13.34-9.59,19.38,3.19,1.75,6.4,3.63,8.79,6.38Z"/>
      <path class="uuid-e42cecfc-5f1d-4514-8c64-01826fed76fb" d="m913.91,1029.26c4.06-1.03,8.12-2.07,12.18-3.1l1.45,10.43c2.93-.45,5.85-.89,8.78-1.34l-1.86-11.05c3.61-.89,7.23-1.79,10.84-2.68.65,3.75,1.31,7.5,1.96,11.25,4.58-1.14,9.15-2.27,13.73-3.41-.86-3.61-1.72-7.23-2.58-10.84,4.1-1.14,8.19-2.27,12.29-3.41.65,3.72,1.31,7.43,1.96,11.15,4.61-1.1,9.22-2.2,13.84-3.3-.93-3.51-1.86-7.02-2.79-10.53,3.37-.79,6.75-1.58,10.12-2.37.86,3.44,1.72,6.88,2.58,10.33,2.93-.65,5.85-1.31,8.78-1.96-.89-3.54-1.79-7.09-2.68-10.63l12.7-2.89.93,2.48,3.72,11.05-103.77,24.78c-.72-4.65-1.45-9.29-2.17-13.94Z"/>
      <path class="uuid-e42cecfc-5f1d-4514-8c64-01826fed76fb" d="m1051.35,1427.23c-.44-.52-.48-1.13-.27-1.71l2.12-1.79c-.62,1.17-1.23,2.33-1.85,3.5Z"/>
      <path class="uuid-e42cecfc-5f1d-4514-8c64-01826fed76fb" d="m1151.73,1288.22c-.11.13-.29.13-.47.08.05-.1.11-.19.16-.28-.03-.26.47,0,.31.2Z"/>
      <path class="uuid-e42cecfc-5f1d-4514-8c64-01826fed76fb" d="m985.92,1351.62h-.2c.58-1.89-.63-4.12-2.52-4.67-.95-.28-1.97-.16-2.95-.32-3.32-.53-5.47-4.72-3.96-7.73-1.88-1.53-4.48,1.01-5.03,3.38-.55,2.36-.69,5.3-2.86,6.39-2.59-.31-3.53-3.73-2.88-6.25s2.25-4.81,2.36-7.41c.11-2.57-.55-6.29,1.98-6.76-.89,2.75,1.35,6.03,4.23,6.22,2.47.16,5.18-1.55,7.27-.21-1.29,2.53-1.79,5.45-1.43,8.27,1-.19,1.99-.38,2.99-.57-.29-4.05.64-8.18,2.63-11.72-1.89.58-4.06.15-5.6-1.1,3.54-4.9,11.44-5.82,16.01-1.86-1.81.11-3.68.24-5.3,1.05-1.62.81-2.95,2.5-2.77,4.31,1.48-1.64,3.99-2.26,6.06-1.48,2.07.78,3.55,2.9,3.58,5.11,0,.73-.11,1.54.31,2.13.7,1,2.26.67,3.39,1.15,2.91,1.24.82,5.76,1.76,8.79,1.07,3.44,5.65,3.94,9.25,3.79,7-.29,13.99-.58,20.99-.87,1-.04,2.12-.04,2.86.64.18.17.32.37.44.58l-1.18-6.88c-3.33-1.1-5.84-3.05-6.86-5.4-3.77,3.85-10.11,10.23-10.88,10.42-1.1.28-.66-4.04-.66-4.04l-27.36-27.81,3.4-3.76c-4.21,1.5-8.66.82-11.38-2.18-3.84-4.25-2.74-11.5,2.46-16.2,5.2-4.7,12.53-5.07,16.37-.82,2.11,2.33,2.72,5.56,1.99,8.78l1.95-2.15,16.99,7.06,47.45-8.39,2.87,12.14-25.6,6.62-.66-8.39-2.51.66v10.15l-6.31.86-13.24,10.17-11.48-16.77,3.97-3.31-12.58-5.71s-5.74,10.57-6.18,11.67c-.44,1.1,23.17,22.73,23.17,22.73l8.94-7.72.02.03c2.15-3.01,6.91-5.11,12.45-5.11,5.18,0,9.68,1.83,12.01,4.54,1.41-.18,4.47,2.74,6.97,5.4l3.97-2.87s1.1,3.53,1.1,4.19-5.08,4.86-5.08,4.86l-2.7-3.97,2.7,21.85c-.26.75-2.28,6.18-7.94,8.17-4.25,1.49-9.07.52-12.72-2.44.4,3.77.64,7.57.87,11.36.67,11,1.34,22,2.01,33.01.08,1.26.13,2.61-.53,3.68-.94,1.52-2.93,1.93-4.7,2.2-7.84,1.19-15.69,2.38-23.53,3.57-.62,4.6-1.58,9.15-2.9,13.6-.13.43-.26.86-.53,1.22-.35.45-.88.72-1.39.97-3.12,1.55-6.23,3.09-9.35,4.64-.48.24-.97.48-1.5.54-2.19.24-3.9-2.62-6.07-2.21-.93-4.42-1.87-8.85-2.31-13.35-.16-1.61-.3-3.32-1.23-4.63-1.39-.25-2.8-.51-4.24-.75-.06.06-.12.1-.17.17,0-.07,0-.13-.01-.2-4.19-.69-8.51-1.2-12.57-.69-2.49-.28-4.99-.56-7.48-.84-1.95-5.41-3.29-11.05-3.98-16.76-.15-1.23-.25-2.54.32-3.63.57-1.09,2.09-1.77,3.09-1.04-2.09-12.2-4.18-24.41-6.26-36.61-.18-1.07-.33-2.29.34-3.14.54-.68,1.44-.93,2.29-1.13,8.6-2.08,17.21-4.16,25.81-6.25,0-.31-.02-.62-.03-.94Zm12.22-53.75c-2.49-2.76-7.7-2.11-11.63,1.45-3.93,3.56-5.1,8.67-2.61,11.43,2.49,2.76,7.7,2.11,11.63-1.45,3.93-3.56,5.1-8.67,2.61-11.43Zm51.25,67.01c3.47-.36,6.37-3.05,7.06-6.62-.47-7.15-1.39-12.71-2.29-16.88-.63.9-1.49,1.71-2.53,2.42l2.61,13.57-3.86,4.79-1.9-16.77c-2.01.74-4.33,1.17-6.82,1.17-1.03,0-2.02-.08-2.98-.21l2.98,14.56c1.63,2.73,4.66,4.29,7.72,3.97Zm-34.07,53.32c3.85-.38,7.7-.75,11.55-1.13-1.76-1.2-3.76-3.11-2.96-5.08.22-.55.64-.99,1.12-1.34,2.11-1.55,5.48-1.04,6.95,1.13,1.47,2.17.62,5.57-1.74,6.71,2.81.49,6.51.53,7.61-2.11.35-.84.33-1.78.3-2.69-.15-4.64-.3-9.28-.46-13.93-7.59,2.29-15.23,4.43-22.9,6.44.01.15.02.31.03.46.18,3.88.1,7.76-.23,11.63.25-.03.49-.06.74-.09Zm-31.61-61.54c-.86.18-1.85.48-2.16,1.3-.26.67.05,1.41.14,2.12.41,3.32-3.68,5.16-6.95,5.9-3.23.73-6.46,1.47-9.68,2.2-.2,8.75-.06,17.52.42,26.26,6.58-1.15,13.23-1.9,19.9-2.22-.86-7.03-1.71-14.06-2.57-21.09-.15-1.22-.29-2.5.18-3.63.47-1.13,1.76-2.03,2.91-1.61,3,11.52,5.28,23.24,6.83,35.04-3.39,1.29-7.65-1.29-8.08-4.89-5.69.9-11.37,1.8-17.06,2.71.02,1.93.04,3.87.07,5.8,4.8-1.13,10.02-.37,14.3,2.08-5.65,1.16-11.46,1.54-17.22,1.14-.89,4.4.95,9.24,4.53,11.94-2.77-2.57-.09-8.07,3.68-7.92,3.77.15,6.22,5.01,4.55,8.39,1.55.85,3.48.39,5.16-.16.49-.16,1-.33,1.5-.47-.23-4.04-.28-8.09-.12-12.14.03-.65.07-1.35.49-1.86.37-.45.95-.64,1.5-.82,5.73-1.84,11.45-3.67,17.18-5.51,2.75.8,5.46,1.73,8.12,2.77.92.36,1.87.8,2.52,1.52,1.02-.5,2.12-.91,3.18-1.27,4.5-1.54,9-3.07,13.49-4.61,2.16-.74,4.44-1.55,5.88-3.32,1.45-1.77,1.59-4.81-.32-6.07-9.5,4.55-19.82,7.39-30.31,8.32-.66-2.61,2.91-4.01,5.57-4.39,8.81-1.23,17.41-3.9,25.38-7.87-.21-10.42-1.4-20.81-3.55-31.01-9.47,1.38-19.08,1.81-28.64,1.29-.21,2.09.03,4.22.68,6.22,4.64.19,9.08-1.67,13.61-2.67,4.53-1,9.84-.93,13.11,2.36-9.9.5-19.8,1-29.7,1.5-.1,10.72.52,21.44,1.86,32.07-1.75.43-3.6.46-5.36.09.11-12.99-.39-25.98-1.52-38.91-4.54.02-9.08.5-13.52,1.41Z"/>
      <path class="uuid-e42cecfc-5f1d-4514-8c64-01826fed76fb" d="m1093.3,1253.21s3.31,15.45,3.31,15.73-9.4,9.65-9.4,9.65l-6.71-27.23,12.8,1.85Z"/>
      <polygon class="uuid-e42cecfc-5f1d-4514-8c64-01826fed76fb" points="1065.94 1249.46 1049.61 1251.36 1043.87 1248.36 1019.82 1250.12 1025.26 1280.35 982.52 1290.73 1020.48 1276.82 1013.86 1246.59 1045.64 1239.97 1052.04 1245.27 1068.81 1243.47 1070.79 1251.36 1078.74 1253.21 1084.85 1274.18 1069.69 1276.38 1065.94 1249.46"/>
      <polygon class="uuid-e42cecfc-5f1d-4514-8c64-01826fed76fb" points="965.09 1227.66 985.17 1229.4 990.69 1250.34 1014.3 1245.27 1011.65 1249.24 986.94 1254.31 981.2 1234.01 969.72 1235.38 978.77 1279.91 978.99 1295.69 958.25 1301.98 962.26 1317.87 955.38 1304.41 954.72 1291.83 974.8 1289.4 976.56 1278.59 948.1 1281.9 975.24 1268.94 965.09 1227.66"/>
      <ellipse class="uuid-e42cecfc-5f1d-4514-8c64-01826fed76fb" cx="1044.31" cy="1268.88" rx="16.33" ry="8.83"/>
      <polygon class="uuid-e42cecfc-5f1d-4514-8c64-01826fed76fb" points="1099.48 1336.41 1112.06 1330.81 1112.06 1337.3 1100.81 1342.37 1099.48 1336.41"/>
      <path class="uuid-e42cecfc-5f1d-4514-8c64-01826fed76fb" d="m1115.58,1371.97l-1.53-4.44,8.36-9.93v11.7l7.97,3.75-7.97,4.55-4.61-1.68c-3.47,5.72-9.86,14.57-20.52,22.29-14.09,10.2-28.18,12.99-35.31,13.9,7.6-2.35,19.07-6.89,30.9-15.89,11.21-8.53,18.43-17.77,22.72-24.24Z"/>
      <path class="uuid-e42cecfc-5f1d-4514-8c64-01826fed76fb" d="m997.36,1225.95l7.23,3.45,2.18,10.31-8.62,4.37-7.46-1.68-2.65-9.95,7.08-6.66c-1.63-.14-3.25-.34-4.88-.6-34.85-5.57-51.25-35.14-53.11-38.62v-8.17c12.89,26.37,39.33,42.84,67.23,41.93,34.45-1.12,54.07-28.18,56.27-31.34.37,1.91.74,3.83,1.1,5.74-15.26,20.94-39.66,32.62-64.39,31.22Z"/>
    </g>
  </g>
</svg>